<svg width="31" height="24" viewBox="0 0 31 24" fill="none" xmlns="http://www.w3.org/2000/svg">
<path fill-rule="evenodd" clip-rule="evenodd" d="M2.14384 0H28.8562C29.7628 0 30.5 0.751158 30.5 1.67442V16.3256C30.5 17.2488 29.7628 18 28.8562 18H24.7466H22.6918H8.30822H6.25342H2.14384C1.23724 18 0.5 17.2488 0.5 16.3256V1.67442C0.5 0.751158 1.23724 0 2.14384 0ZM20.8071 10.4651H22.6918C22.9189 10.4651 23.1027 10.2777 23.1027 10.0465C23.1027 9.81534 22.9189 9.62791 22.6918 9.62791H20.637C20.5278 9.62791 20.4235 9.67206 20.3464 9.75054L18.762 11.3647L16.9171 5.72802C16.8613 5.55714 16.7044 5.44186 16.5274 5.44186C16.3504 5.44186 16.1935 5.55714 16.1377 5.72802L14.3964 11.0485L12.7854 7.76626C12.7264 7.64587 12.6141 7.56186 12.4836 7.5402C12.3512 7.51874 12.2204 7.56227 12.1272 7.65752L10.1929 9.62791H8.30822C8.08107 9.62791 7.89726 9.81534 7.89726 10.0465C7.89726 10.2777 8.08107 10.4651 8.30822 10.4651H10.363C10.4722 10.4651 10.5765 10.421 10.6536 10.3425L12.305 8.66009L14.105 12.3268C14.1792 12.478 14.3309 12.5682 14.5019 12.5571C14.6676 12.5451 14.8097 12.4324 14.8623 12.272L16.5274 7.18414L18.1925 12.272C18.2375 12.4095 18.349 12.5136 18.4879 12.5469C18.5192 12.5545 18.5509 12.5581 18.5822 12.5581C18.6897 12.5581 18.7949 12.515 18.8728 12.4355L20.8071 10.4651ZM16.5 19H14.5V22H16.5V19ZM12.0325 23C11.2964 23 10.6758 23.4256 10.5 24H19.5C19.3242 23.4256 18.7036 23 17.9675 23H15.9892H14.0108H12.0325Z" fill="#555F7C"/>
</svg>
