<svg width="27" height="26" viewBox="0 0 27 26" fill="none" xmlns="http://www.w3.org/2000/svg">
<path fill-rule="evenodd" clip-rule="evenodd" d="M2.03768 0H6.33277C6.71385 0 7.07004 0.166555 7.33684 0.422207C7.59075 0.678308 7.74371 1.03649 7.74371 1.43318V5.74524C7.74371 6.14193 7.59075 6.50011 7.33684 6.75621C7.07004 7.01187 6.7143 7.17842 6.33277 7.17842H2.03768C1.65659 7.17842 1.30086 7.01187 1.03361 6.75621C0.779699 6.50011 0.627176 6.14193 0.627176 5.74524V1.43318C0.627176 1.03649 0.779699 0.678308 1.03361 0.422207C1.30041 0.166555 1.65615 0 2.03768 0ZM20.6797 18.8225H24.9623C25.3563 18.8225 25.7125 18.9886 25.9664 19.2438C26.2203 19.4999 26.3853 19.8585 26.3853 20.2548V24.5668C26.3853 24.964 26.2203 25.3226 25.9664 25.5778C25.7125 25.8339 25.3563 26 24.9623 26H20.6797C20.2857 26 19.93 25.8339 19.6756 25.5778C19.4088 25.3226 19.2567 24.964 19.2567 24.5668V20.2548C19.2567 19.8585 19.4093 19.4999 19.6756 19.2438C19.9304 18.9886 20.2861 18.8225 20.6797 18.8225ZM11.2637 18.8225H15.5588C15.9399 18.8225 16.2957 18.9886 16.5629 19.2438C16.8168 19.4999 16.9693 19.8585 16.9693 20.2548V24.5668C16.9693 24.964 16.8168 25.3226 16.5629 25.5778C16.2957 25.8339 15.9404 26 15.5588 26H11.2637C10.8827 26 10.5265 25.8339 10.2597 25.5778C10.0053 25.3226 9.8528 24.964 9.8528 24.5668V20.2548C9.8528 19.8585 10.0053 19.4999 10.2597 19.2438C10.5265 18.9886 10.8822 18.8225 11.2637 18.8225ZM1.9234 18.8225H6.20604C6.60002 18.8225 6.95575 18.9886 7.21011 19.2438C7.46402 19.4999 7.62899 19.8585 7.62899 20.2548V24.5668C7.62899 24.964 7.46402 25.3226 7.21011 25.5778C6.95575 25.8339 6.60002 26 6.20604 26H1.9234C1.52942 26 1.17323 25.8339 0.919326 25.5778C0.665418 25.3226 0.5 24.964 0.5 24.5668V20.2548C0.5 19.8585 0.665418 19.4999 0.919326 19.2438C1.17323 18.9886 1.52942 18.8225 1.9234 18.8225ZM20.7308 9.41751H25.0259C25.407 9.41751 25.7632 9.57108 26.03 9.82718C26.2839 10.0958 26.4369 10.454 26.4369 10.8377V15.1628C26.4369 15.5465 26.2839 15.9042 26.03 16.1737C25.7632 16.4289 25.4074 16.5829 25.0259 16.5829H20.7308C20.3497 16.5829 19.994 16.4289 19.7267 16.1737C19.4728 15.9042 19.3203 15.5469 19.3203 15.1628V10.8377C19.3203 10.454 19.4728 10.0958 19.7267 9.82718C19.994 9.57108 20.3493 9.41751 20.7308 9.41751ZM11.3269 9.41751H15.6095C16.0035 9.41751 16.3597 9.57108 16.6136 9.82718C16.8804 10.0958 17.0325 10.454 17.0325 10.8377V15.1628C17.0325 15.5465 16.88 15.9042 16.6136 16.1737C16.3597 16.4289 16.0035 16.5829 15.6095 16.5829H11.3269C10.9329 16.5829 10.5767 16.4289 10.3228 16.1737C10.0689 15.9042 9.90349 15.5469 9.90349 15.1628V10.8377C9.90349 10.454 10.0689 10.0958 10.3228 9.82718C10.5772 9.57108 10.9334 9.41751 11.3269 9.41751ZM1.98654 9.41751H6.26918C6.66316 9.41751 7.01934 9.57108 7.27325 9.82718C7.52716 10.0958 7.69258 10.454 7.69258 10.8377V15.1628C7.69258 15.5465 7.52716 15.9042 7.27325 16.1737C7.01934 16.4289 6.66316 16.5829 6.26918 16.5829H1.98654C1.59256 16.5829 1.23682 16.4289 0.98247 16.1737C0.715666 15.9042 0.563588 15.5469 0.563588 15.1628V10.8377C0.563588 10.454 0.716111 10.0958 0.98247 9.82718C1.23727 9.57108 1.593 9.41751 1.98654 9.41751ZM20.7944 0H25.0766C25.4706 0 25.8268 0.166555 26.0807 0.422207C26.3479 0.678308 26.5 1.03649 26.5 1.43318V5.74524C26.5 6.14193 26.3475 6.50011 26.0807 6.75621C25.8268 7.01187 25.4706 7.17842 25.0766 7.17842H20.7944C20.4 7.17842 20.0442 7.01187 19.7903 6.75621C19.536 6.50011 19.371 6.14193 19.371 5.74524V1.43318C19.371 1.03649 19.536 0.678308 19.7903 0.422207C20.0571 0.166555 20.4004 0 20.7944 0ZM11.3905 0H15.6731C16.0671 0 16.4233 0.166555 16.6772 0.422207C16.9311 0.678308 17.0965 1.03649 17.0965 1.43318V5.74524C17.0965 6.14193 16.9311 6.50011 16.6772 6.75621C16.4233 7.01187 16.0671 7.17842 15.6731 7.17842H11.3905C10.9965 7.17842 10.6408 7.01187 10.3864 6.75621C10.1325 6.50011 9.96752 6.14193 9.96752 5.74524V1.43318C9.96752 1.03649 10.1325 0.678308 10.3864 0.422207C10.6408 0.166555 10.9965 0 11.3905 0Z" fill="#555F7C"/>
</svg>
