<svg width="32" height="32" viewBox="0 0 32 32" fill="none" xmlns="http://www.w3.org/2000/svg">
<path d="M2.69474 16C2.69474 9.36421 7.57895 3.84 13.9789 2.86316L16.1011 0H16C7.17474 0 0 7.17474 0 16C0 22.1305 3.46947 27.4863 8.55579 30.1474C8.55579 29.9453 8.58947 29.7432 8.62316 29.541L9.06105 27.3179C5.25474 24.9937 2.69474 20.7832 2.69474 16Z" fill="#465364"/>
<path d="M23.4442 1.85263C23.4442 2.05474 23.4105 2.25684 23.3769 2.45895L22.939 4.6821C26.7453 6.97263 29.3053 11.2168 29.3053 16C29.3053 22.6358 24.4211 28.16 18.0211 29.1368L15.899 32H16C24.8253 32 32 24.8253 32 16C32 9.86947 28.5305 4.51368 23.4442 1.85263Z" fill="#465364"/>
<path d="M24.5895 12.8337H18.4926L20.7158 1.88632C20.9516 0.741061 19.4358 0.0673771 18.7621 1.01053L6.50106 17.4147C5.96211 18.1558 6.46738 19.1663 7.37685 19.1663H13.4737L11.2842 30.1137C11.0484 31.259 12.5642 31.9326 13.2379 30.9895L25.4653 14.5853C26.0379 13.8442 25.499 12.8337 24.5895 12.8337Z" fill="#465364"/>
</svg>
