<?xml version="1.0" encoding="UTF-8"?>
<svg width="108px" height="121px" viewBox="0 0 108 121" version="1.1" xmlns="http://www.w3.org/2000/svg" xmlns:xlink="http://www.w3.org/1999/xlink">
    <!-- Generator: Sketch 49.2 (51160) - http://www.bohemiancoding.com/sketch -->
    <title>Group 2</title>
    <desc>Created with Sketch.</desc>
    <defs>
        <path d="M32.9076106,101.349027 L0,101.349027 L0,0 L87.5925664,0 L87.5925664,48.7667257 C87.5925664,51.9897345 86.3522124,55.0332743 84.100885,57.3387611 L41.5869027,97.7490265 C39.300531,100.058761 36.2060177,101.349027 32.9076106,101.349027 Z" id="path-1"></path>
    </defs>
    <g id="CMS---Null-states-w/-text" stroke="none" stroke-width="1" fill="none" fill-rule="evenodd">
        <g id="cms-no-ingestion-jobs" transform="translate(-163.000000, -51.000000)">
            <g id="Group-3" transform="translate(68.000000, 53.000000)">
                <g id="Group-2" transform="translate(97.000000, 0.000000)">
                    <path d="M79.036324,67.2804691 C84.9078746,75.1697402 83.2724081,86.3251057 75.383137,92.1966563 C67.4938658,98.0685295 56.3385003,96.433063 50.4669497,88.5437919 C44.594754,80.6545208 46.2305431,69.4988327 54.1198142,63.6272821 C62.0090853,57.7557315 73.1644508,59.391198 79.036324,67.2804691 Z M102.004253,91.1212489 L104.252387,79.8725459 L96.6741842,76.0705486 C96.6678419,75.95681 96.6682647,75.8439171 96.6610768,75.7306013 C96.5300026,73.71375 96.2082366,71.7556706 95.73045,69.8631284 L101.815675,63.9774742 L96.3071765,53.9152041 L88.1556299,55.8500284 C86.701552,54.2669903 85.0969501,52.8281339 83.3621197,51.5592511 L84.2238269,43.3045365 L73.5357832,39.1376456 L68.7304341,45.5974893 C66.5622132,45.2913677 64.3318377,45.1991929 62.0621401,45.3463342 C62.0101332,45.3497168 61.958972,45.3569047 61.9069651,45.3607101 L57.4593217,38.7769801 L46.5932708,42.4550912 L47.0448426,50.1563344 C44.9912059,51.4315595 43.0973952,52.9300335 41.3862427,54.6111658 L34.0456649,52.5122874 L28.0860172,62.3141003 L33.2211659,67.752411 C32.4558617,70.0893371 31.9434039,72.5336594 31.7286114,75.0545122 L24.9393908,78.0840174 L26.6742212,89.4236266 L34.0930207,90.2878707 C35.0502852,92.5947765 36.2608188,94.7638431 37.6933329,96.7612447 L34.399988,103.526364 L43.017905,111.097802 L49.4498427,106.864105 C51.5542177,107.935531 53.7854388,108.782863 56.1113716,109.378616 L58.0017997,116.935255 L69.4703691,117.195712 L71.7738923,109.489818 C73.9856637,108.959601 76.1031462,108.20529 78.1068901,107.253523 L84.7007678,112.03604 L93.6531354,104.863744 L90.335267,97.178568 C91.5973846,95.4737578 92.6971394,93.6450614 93.6112762,91.715311 L102.004253,91.1212489 Z" id="Fill-19" stroke="#2D99DE" stroke-width="2" fill="#9ECFEF" transform="translate(64.595889, 77.986346) rotate(-4.000000) translate(-64.595889, -77.986346) "></path>
                    <g id="Fill-5">
                        <use fill="#FFFFFF" fill-rule="evenodd" xlink:href="#path-1"></use>
                        <path stroke="#2D99DE" stroke-width="2" d="M32.9076106,102.349027 L-1,102.349027 L-1,-1 L88.5925664,-1 L88.5925664,48.7667257 C88.5925664,52.2503129 87.2504566,55.5447466 84.7898314,58.0635733 L42.2975946,98.4525299 C39.8188383,100.956615 36.4664674,102.349027 32.9076106,102.349027 Z"></path>
                    </g>
                    <g id="Group" transform="translate(6.371681, 12.743363)">
                        <polygon id="Fill-6" fill="#0686D8" points="0 2.12389381 9.55752212 2.12389381 9.55752212 0 0 0"></polygon>
                        <polygon id="Fill-7" fill="#5FB0E5" points="4.24778761 9.55752212 10.619469 9.55752212 10.619469 7.43362832 4.24778761 7.43362832"></polygon>
                        <polygon id="Fill-8" fill="#0686D8" points="25.4867257 9.55752212 71.1504425 9.55752212 71.1504425 7.43362832 25.4867257 7.43362832"></polygon>
                        <polygon id="Fill-9" fill="#0686D8" points="14.8672566 9.55752212 22.300885 9.55752212 22.300885 7.43362832 14.8672566 7.43362832"></polygon>
                        <polygon id="Fill-11" fill="#5FB0E5" points="11.6814159 16.9911504 27.6106195 16.9911504 27.6106195 14.8672566 11.6814159 14.8672566"></polygon>
                        <polygon id="Fill-12" fill="#0686D8" points="0 24.4247788 18.0530973 24.4247788 18.0530973 22.300885 0 22.300885"></polygon>
                        <polygon id="Fill-13" fill="#9ECFEF" points="20.1769912 24.4247788 32.920354 24.4247788 32.920354 22.300885 20.1769912 22.300885"></polygon>
                        <polygon id="Fill-17" fill="#0686D8" points="13.8053097 31.8584071 35.0442478 31.8584071 35.0442478 29.7345133 13.8053097 29.7345133"></polygon>
                        <polygon id="Fill-18" fill="#5FB0E5" points="6.37168142 31.8584071 10.619469 31.8584071 10.619469 29.7345133 6.37168142 29.7345133"></polygon>
                        <polygon id="Fill-19" fill="#0686D8" points="0 39.2920354 13.8053097 39.2920354 13.8053097 37.1681416 0 37.1681416"></polygon>
                        <polygon id="Fill-20" fill="#5FB0E5" points="14.8672566 39.2920354 20.1769912 39.2920354 20.1769912 37.1681416 14.8672566 37.1681416"></polygon>
                        <polygon id="Fill-21" fill="#9ECFEF" points="22.300885 39.2920354 45.6637168 39.2920354 45.6637168 37.1681416 22.300885 37.1681416"></polygon>
                        <polygon id="Fill-22" fill="#0686D8" points="47.7876106 39.2920354 69.0265487 39.2920354 69.0265487 37.1681416 47.7876106 37.1681416"></polygon>
                        <polygon id="Fill-23" fill="#0686D8" points="4.24778761 46.7256637 11.6814159 46.7256637 11.6814159 44.6017699 4.24778761 44.6017699"></polygon>
                        <polygon id="Fill-24" fill="#0686D8" points="14.8672566 46.7256637 32.920354 46.7256637 32.920354 44.6017699 14.8672566 44.6017699"></polygon>
                        <polygon id="Fill-26" fill="#5FB0E5" points="26.5486726 54.159292 40.3539823 54.159292 40.3539823 52.0353982 26.5486726 52.0353982"></polygon>
                        <polygon id="Fill-27" fill="#0686D8" points="43.539823 54.159292 57.3451327 54.159292 57.3451327 52.0353982 43.539823 52.0353982"></polygon>
                        <polygon id="Fill-25-Copy" fill="#0686D8" points="1.0619469 61.5929204 9.55752212 61.5929204 9.55752212 59.4690265 1.0619469 59.4690265"></polygon>
                        <polygon id="Fill-26-Copy" fill="#5FB0E5" points="14.8672566 61.5929204 23.3628319 61.5929204 23.3628319 59.4690265 14.8672566 59.4690265"></polygon>
                        <polygon id="Fill-27-Copy" fill="#0686D8" points="28.6725664 61.5929204 36.1061947 61.5929204 36.1061947 59.4690265 28.6725664 59.4690265"></polygon>
                        <polygon id="Fill-28" fill="#0686D8" points="64.7787611 16.9911504 69.0265487 16.9911504 69.0265487 14.8672566 64.7787611 14.8672566"></polygon>
                        <polygon id="Fill-29" fill="#0686D8" points="29.7345133 16.9911504 63.7168142 16.9911504 63.7168142 14.8672566 29.7345133 14.8672566"></polygon>
                        <polygon id="Fill-30" fill="#0686D8" points="11.6814159 2.12389381 49.9115044 2.12389381 49.9115044 0 11.6814159 0"></polygon>
                    </g>
                </g>
            </g>
        </g>
    </g>
</svg>