<?xml version="1.0" encoding="UTF-8"?>
<svg width="124px" height="111px" viewBox="0 0 124 111" version="1.1" xmlns="http://www.w3.org/2000/svg" xmlns:xlink="http://www.w3.org/1999/xlink">
    <!-- Generator: Sketch 49.2 (51160) - http://www.bohemiancoding.com/sketch -->
    <title>Page 1</title>
    <desc>Created with Sketch.</desc>
    <defs></defs>
    <g id="CMS---Null-states-w/-text" stroke="none" stroke-width="1" fill="none" fill-rule="evenodd">
        <g id="cms-no-sources" transform="translate(-156.000000, -63.000000)" stroke="#2D99DE" stroke-width="2">
            <g id="Group-3" transform="translate(68.000000, 64.000000)">
                <g id="Page-1" transform="translate(90.000000, 0.000000)">
                    <path d="M104.034336,22.3443304 C94.1640118,8.80214749 78.1820649,0.00108554572 60.140295,0.00108554572 C30.1629499,0.00108554572 5.86300885,24.3010265 5.86300885,54.2783717 L5.86300885,56.992236 L0.435280236,56.992236 L14.0046018,75.9892861 L24.860059,56.992236 L19.4323304,56.992236 L19.4323304,54.2783717 C19.4323304,31.7940059 37.6586431,13.5704071 60.140295,13.5704071" id="Stroke-1"></path>
                    <path d="M16.2473392,86.2102419 C26.1176637,99.7524248 42.0996106,108.553487 60.1413805,108.553487 C90.1187257,108.553487 114.418667,84.2535457 114.418667,54.2762006 L114.418667,51.5623363 L119.846395,51.5623363 L106.277074,32.5652861 L95.4216165,51.5623363 L100.849345,51.5623363 L100.849345,54.2762006 C100.849345,76.7605664 82.6230324,94.9841652 60.1413805,94.9841652" id="Stroke-3"></path>
                    <path d="M70.1983522,46.692733 C74.129155,51.9743309 73.034266,59.4424675 67.7526681,63.3732703 C62.4710702,67.3042891 55.0029336,66.2094001 51.0721307,60.9278022 C47.140896,55.6462043 48.236001,48.1778517 53.5175989,44.2470489 C58.7991968,40.3162461 66.2673334,41.4111351 70.1983522,46.692733 Z M85.5745971,62.6533217 L87.079646,55.1226989 L82.0062979,52.5773913 C82.0020519,52.5012472 82.002335,52.4256693 81.9975229,52.3498082 C81.9097732,50.9995951 81.6943618,49.6887277 81.3745,48.4217353 L85.4483507,44.4814905 L81.7605987,37.745144 L76.3034164,39.0404428 C75.3299608,37.9806529 74.2557346,37.0173876 73.0943248,36.1679139 L73.6712084,30.641664 L66.5159278,27.8520727 L63.2989104,32.1767177 C61.8473605,31.9717797 60.3542003,31.9100718 58.8347151,32.008578 C58.7998983,32.0108425 58.7656476,32.0156545 58.7308308,32.0182021 L55.7532852,27.6106195 L48.4788348,30.0729894 L48.7811467,35.228709 C47.406307,36.0824287 46.1384654,37.0856059 44.9929071,38.2110666 L40.0786407,36.8059391 L36.0888599,43.3679185 L39.5266668,47.008682 C39.0143217,48.5731743 38.6712487,50.2095647 38.5274524,51.8971896 L33.9823009,53.92534 L35.1437107,61.5168215 L40.1103438,62.0954035 C40.7511997,63.6397982 41.5616107,65.0919143 42.52063,66.4291065 L40.315848,70.9581234 L46.0852494,76.0269426 L50.3912122,73.1926272 C51.8000196,73.9099102 53.293746,74.4771696 54.8508786,74.8760061 L56.1164557,79.934918 L63.7942717,80.1092852 L65.3364019,74.9504518 C66.8171074,74.5954901 68.2346897,74.0905048 69.5761279,73.4533287 L73.9905041,76.6550606 L79.9838088,71.8534535 L77.762609,66.7084903 C78.6075537,65.567178 79.3438021,64.3429281 79.9557855,63.051026 L85.5745971,62.6533217 Z" id="Fill-19" fill="#9ECFEF"></path>
                </g>
            </g>
        </g>
    </g>
</svg>