<?xml version="1.0" encoding="UTF-8"?>
<svg width="131px" height="117px" viewBox="0 0 131 117" version="1.1" xmlns="http://www.w3.org/2000/svg" xmlns:xlink="http://www.w3.org/1999/xlink">
    <!-- Generator: Sketch 49.1 (51147) - http://www.bohemiancoding.com/sketch -->
    <title>Page 1</title>
    <desc>Created with Sketch.</desc>
    <defs></defs>
    <g id="Source-Management" stroke="none" stroke-width="1" fill="none" fill-rule="evenodd">
        <g id="CMS---Source-Management" transform="translate(-695.000000, -305.000000)" stroke="#2D99DE">
            <g id="null" transform="translate(611.000000, 307.000000)">
                <g id="Page-1" transform="translate(87.000000, 0.000000)">
                    <path d="M108.3691,23.2753441 C98.0875123,9.16890364 81.4396509,0.00113077679 62.6461406,0.00113077679 C31.4197394,0.00113077679 6.10730088,25.3135693 6.10730088,56.5399705 L6.10730088,59.3669125 L0.453416912,59.3669125 L14.5881268,79.1555064 L25.8958948,59.3669125 L20.2420108,59.3669125 L20.2420108,56.5399705 C20.2420108,33.1187561 39.2277532,14.1358407 62.6461406,14.1358407" id="Stroke-1" stroke-width="3"></path>
                    <path d="M16.9243117,89.8023353 C27.2058997,103.908776 43.8537611,113.076549 62.6472714,113.076549 C93.8736726,113.076549 119.186111,87.7641101 119.186111,56.5377089 L119.186111,53.710767 L124.839995,53.710767 L110.705285,33.9221731 L99.3975172,53.710767 L105.051401,53.710767 L105.051401,56.5377089 C105.051401,79.9589233 86.0656588,98.9418387 62.6472714,98.9418387" id="Stroke-3" stroke-width="3"></path>
                    <path d="M73.1232835,48.6382635 C77.2178698,54.139928 76.0773604,61.919237 70.5756959,66.0138233 C65.0740315,70.1086345 57.2947225,68.9681251 53.2001362,63.4664606 C49.1051,57.9647962 50.2458344,50.1852622 55.7474988,46.0906759 C61.2491633,41.9960896 69.0284723,43.1365991 73.1232835,48.6382635 Z M89.1402053,65.2638768 L90.7079646,57.419478 L85.423227,54.768116 C85.4188041,54.6887992 85.4190989,54.6100722 85.4140864,54.5310503 C85.3226804,53.1245782 85.0982936,51.7590914 84.7651042,50.4393076 L89.0086987,46.334886 L85.1672903,39.3178583 L79.4827254,40.667128 C78.4687092,39.5631801 77.3497236,38.5597788 76.1399217,37.6749103 L76.7408421,31.9184 L69.2874248,29.0125757 L65.936365,33.5174143 C64.4243339,33.3039372 62.8689586,33.2396582 61.2861615,33.3422687 C61.249894,33.3446276 61.2142162,33.3496402 61.1779487,33.3522939 L58.0763388,28.7610619 L50.4987863,31.3260306 L50.8136945,36.6965719 C49.3815698,37.5858632 48.0609014,38.6308395 46.8676116,39.8031944 L41.7485841,38.3395199 L37.5925624,45.1749151 L41.1736112,48.9673771 C40.6399185,50.5970565 40.2825507,52.3016299 40.1327629,54.0595725 L35.3982301,56.1722292 L36.6080319,64.0800224 L41.7816082,64.6827119 C42.4491664,66.2914565 43.2933445,67.8040774 44.2923229,69.196986 L41.995675,73.9147119 L48.0054681,79.1947318 L52.4908461,76.24232 C53.9583537,76.9894898 55.5143187,77.580385 57.1363319,77.9958397 L58.4546414,83.2655396 L66.4523663,83.4471721 L68.058752,78.0733873 C69.6011535,77.7036356 71.0778018,77.1776091 72.4751332,76.5138841 L77.0734417,79.8490214 L83.3164675,74.8473474 L81.0027177,69.4880107 C81.8828685,68.2991437 82.6497938,67.0238834 83.2872765,65.6781521 L89.1402053,65.2638768 Z" id="Fill-19" stroke-width="2" fill="#9ECFEF"></path>
                </g>
            </g>
        </g>
    </g>
</svg>