<svg width="20" height="20" viewBox="0 0 20 20" fill="none" xmlns="http://www.w3.org/2000/svg">
<path d="M9.99369 20C15.47 20 20 15.47 20 10.0063C20 4.52997 15.4574 0 9.99369 0C4.51735 0 0 4.52997 0 10.0063C0 15.47 4.52996 20 9.99369 20ZM9.82964 12.1262C9.36278 12.1262 9.09779 11.8738 9.09779 11.4069V11.2177C9.09779 10.2334 9.61515 9.67824 10.3849 9.16088C11.3186 8.50474 11.735 8.13882 11.735 7.41957C11.735 6.612 11.0915 6.04417 10.0694 6.04417C9.28706 6.04417 8.70661 6.48581 8.44165 7.12934C8.16403 7.48265 8.06309 7.76025 7.54575 7.76025C7.2303 7.76025 6.91484 7.53312 6.91484 7.11673C6.91484 6.95268 6.94006 6.80127 6.97792 6.63722C7.2303 5.653 8.37855 4.79496 10.1325 4.79496C11.8612 4.79496 13.3249 5.7161 13.3249 7.35647C13.3249 8.5426 12.6561 9.13566 11.6467 9.82965C10.9022 10.3344 10.5615 10.7003 10.5615 11.2934V11.47C10.5615 11.836 10.2965 12.1262 9.82964 12.1262ZM9.8675 15.0536C9.32492 15.0536 8.8328 14.612 8.8328 14.0442C8.8328 13.4764 9.32492 13.0473 9.8675 13.0473C10.4101 13.0473 10.9022 13.4637 10.9022 14.0442C10.9022 14.6246 10.4101 15.0536 9.8675 15.0536Z" fill="#555F7C"/>
</svg>
