<svg width="34" height="34" viewBox="0 0 34 34" fill="none" xmlns="http://www.w3.org/2000/svg">
<path d="M31.5841 8.25105C33.1473 10.8473 34 13.8703 34 17C34 18.2448 33.8579 19.454 33.6092 20.6276L29.4525 19.1339C29.559 18.4226 29.6301 17.7113 29.6301 17C29.6301 14.8305 29.0617 12.7678 28.1024 10.9895L31.5841 8.25105ZM16.9822 29.6611C10.0188 29.6611 4.33438 23.9707 4.33438 17C4.33438 14.9017 4.83177 12.9456 5.71996 11.2029L2.20272 8.53556C0.781609 11.0962 0 13.977 0 17C0 21.5523 1.77638 25.8201 4.97388 29.0209C8.17137 32.2218 12.4347 34 16.9822 34C21.5298 34 25.7931 32.2218 28.9906 29.0209C30.2696 27.7406 31.3354 26.2824 32.117 24.7176L27.9958 23.2238C25.8286 27.0649 21.7074 29.6611 16.9822 29.6611ZM16.9822 0C12.4347 0 8.17137 1.77824 4.97388 4.97908C4.93835 5.01464 4.90282 5.05021 4.86729 5.08577L8.38453 7.75314C10.6583 5.65481 13.6782 4.33891 17.0178 4.33891C20.2508 4.33891 23.1996 5.54812 25.4378 7.57531L28.884 4.83682C25.6865 1.70711 21.4587 0 16.9822 0ZM24.9404 18.4937C24.7273 19.5607 24.3365 20.6276 23.697 21.5523L24.6207 22.477C24.9404 22.7971 24.9404 23.3661 24.6207 23.6862L23.697 24.6109C23.3772 24.931 22.8088 24.931 22.489 24.6109L21.6008 23.7218C20.6771 24.3619 19.6113 24.7887 18.5455 25.0021V26.2824C18.5455 26.7448 18.1546 27.136 17.6928 27.136H16.3783C15.9164 27.136 15.5256 26.7448 15.5256 26.2824V25.0377C14.4598 24.8243 13.3939 24.3975 12.4347 23.7573L11.5465 24.6464C11.2267 24.9665 10.6583 24.9665 10.3386 24.6464L9.41484 23.7218C9.09509 23.4017 9.09509 22.8326 9.41484 22.5126L10.303 21.6234C9.66353 20.6632 9.2372 19.6318 9.02403 18.5649H7.78056C7.3187 18.5649 6.9279 18.1736 6.9279 17.7113V16.3954C6.9279 15.9331 7.3187 15.5418 7.78056 15.5418H9.05956C9.27273 14.4749 9.69906 13.4079 10.3386 12.4833L9.45036 11.5941C9.13062 11.2741 9.13062 10.705 9.45036 10.3849L10.3741 9.46025C10.6938 9.14017 11.2623 9.14017 11.582 9.46025L12.5057 10.3849C13.4295 9.74477 14.4953 9.31799 15.5611 9.14017V7.85983C15.5611 7.39749 15.9519 7.00628 16.4138 7.00628H17.7283C18.1902 7.00628 18.581 7.39749 18.581 7.85983V9.17573C19.6468 9.38912 20.6771 9.8159 21.6008 10.4205L22.5246 9.49582C22.8443 9.17573 23.4127 9.17573 23.7325 9.49582L24.6562 10.4205C24.976 10.7406 24.976 11.3096 24.6562 11.6297L23.7325 12.5544C24.372 13.4791 24.7983 14.5105 25.0115 15.5774H26.326C26.7879 15.5774 27.1787 15.9686 27.1787 16.431V17.7469C27.1787 18.2092 26.7879 18.6004 26.326 18.6004L24.9404 18.4937ZM20.1087 13.8703C18.4033 12.1632 15.5967 12.1632 13.8913 13.8703C12.186 15.5774 12.186 18.387 13.8913 20.0941C15.5967 21.8013 18.4033 21.8013 20.1087 20.0941C21.814 18.387 21.814 15.613 20.1087 13.8703Z" fill="#555F7C"/>
</svg>
