<svg width="43" height="34" viewBox="0 0 43 34" fill="none" xmlns="http://www.w3.org/2000/svg">
<path d="M0 33.955H8.32849V28.5961H11.8138V33.955H20.1423V0H0V33.955ZM14.1222 3.33246H16.7928V6.80001H14.1222V3.33246ZM14.1222 9.502H16.7928V12.9696H14.1222V9.502ZM14.1222 15.6265H16.7928V19.0941H14.1222V15.6265ZM14.1222 21.7961H16.7928V25.2636H14.1222V21.7961ZM8.73586 3.33246H11.4064V6.80001H8.73586V3.33246ZM8.73586 9.502H11.4064V12.9696H8.73586V9.502ZM8.73586 15.6265H11.4064V19.0941H8.73586V15.6265ZM8.73586 21.7961H11.4064V25.2636H8.73586V21.7961ZM3.3495 3.33246H6.02005V6.80001H3.3495V3.33246ZM3.3495 9.502H6.02005V12.9696H3.3495V9.502ZM3.3495 15.6265H6.02005V19.0941H3.3495V15.6265ZM3.3495 21.7961H6.02005V25.2636H3.3495V21.7961Z" fill="#2D9CDB"/>
<path d="M22.8574 6.16956V34.0001H31.1859V28.5961H34.6712V33.955H42.9997V6.16956H22.8574ZM28.8775 25.2636H26.2069V21.7961H28.8775V25.2636ZM28.8775 19.1391H26.2069V15.6265H28.8775V19.1391ZM28.8775 12.9696H26.2069V9.50201H28.8775V12.9696ZM34.2638 25.2636H31.5933V21.7961H34.2638V25.2636ZM34.2638 19.1391H31.5933V15.6265H34.2638V19.1391ZM34.2638 12.9696H31.5933V9.50201H34.2638V12.9696ZM39.6502 25.2636H36.9796V21.7961H39.6502V25.2636ZM39.6502 19.1391H36.9796V15.6265H39.6502V19.1391ZM39.6502 12.9696H36.9796V9.50201H39.6502V12.9696Z" fill="#2D9CDB"/>
</svg>
