<svg width="34" height="40" viewBox="0 0 34 40" fill="none" xmlns="http://www.w3.org/2000/svg">
<path d="M30.0775 3.85913C27.5418 1.33361 23.9171 0 19.594 0H19.4693C13.5333 0.0416753 9.16032 1.84205 6.44175 5.33444C4.37165 8.01833 3.29919 11.6691 3.26593 16.1033L0.248071 21.1044C0.110336 21.3356 0.0274233 21.5955 0.00572882 21.864C-0.0159656 22.1325 0.0241375 22.4024 0.122945 22.6528C0.221753 22.9033 0.376625 23.1277 0.575616 23.3087C0.774607 23.4896 1.0124 23.6223 1.27065 23.6966L3.4904 24.3301L2.76711 26.7306C2.72543 26.8617 2.72373 27.0024 2.76224 27.1345C2.80074 27.2667 2.8777 27.3843 2.98327 27.4724L3.54028 27.9391L3.18279 28.856C3.14534 28.9547 3.13038 29.0606 3.13901 29.1659C3.14764 29.2712 3.17964 29.3732 3.23268 29.4645L4.06404 30.9314C4.06404 32.3567 4.23863 36.0742 6.12583 36.6409C7.46433 37.041 10.2827 36.6409 11.7459 36.3325L11.5962 39.2665C11.5925 39.361 11.6075 39.4553 11.6403 39.544C11.6731 39.6327 11.7231 39.714 11.7874 39.7833C11.8526 39.8524 11.9312 39.9073 12.0185 39.9446C12.1057 39.9819 12.1997 40.0007 12.2946 40H27.7829C27.8866 40.0004 27.989 39.9773 28.0825 39.9326C28.1761 39.8879 28.2584 39.8226 28.3233 39.7416C28.5644 39.4499 28.5644 39.4499 28.1072 36.9493C27.9741 36.2075 27.7912 35.199 27.7746 35.0239C27.5751 31.0815 29.1879 27.7224 30.8922 24.1884C31.4326 23.0715 31.9813 21.9212 32.4718 20.7626C33.4232 18.6659 33.9407 16.3975 33.9932 14.0946C34.0513 12.2133 33.735 10.3392 33.0627 8.58183C32.3903 6.82445 31.3755 5.21897 30.0775 3.85913ZM27.5086 14.7614C27.5086 14.8376 27.4935 14.9131 27.4641 14.9834C27.4348 15.0538 27.3918 15.1175 27.3376 15.171C27.2835 15.2246 27.2193 15.2667 27.1487 15.2952C27.0781 15.3236 27.0026 15.3376 26.9266 15.3365H25.505C25.3752 15.7987 25.1969 16.2457 24.9729 16.6701L25.9789 17.6787C26.0352 17.7324 26.0801 17.797 26.1107 17.8687C26.1414 17.9403 26.1572 18.0175 26.1572 18.0954C26.1572 18.1734 26.1414 18.2505 26.1107 18.3222C26.0801 18.3938 26.0352 18.4585 25.9789 18.5122L24.1914 20.2542C24.0814 20.3654 23.9319 20.4283 23.7757 20.4292C23.6228 20.4245 23.4773 20.362 23.3684 20.2542L22.3624 19.2457C21.9535 19.4721 21.5215 19.6538 21.0738 19.7874V21.2127C21.0738 21.289 21.0587 21.3644 21.0294 21.4348C21 21.5051 20.957 21.5689 20.9029 21.6224C20.8487 21.6759 20.7845 21.7181 20.7139 21.7465C20.6434 21.7749 20.5679 21.789 20.4918 21.7879H17.9977C17.8456 21.7879 17.6997 21.7273 17.5921 21.6194C17.4845 21.5116 17.4241 21.3653 17.4241 21.2127V19.7874C16.9743 19.6523 16.5396 19.4708 16.1272 19.2457L15.088 20.2542C15.0344 20.3107 14.9699 20.3557 14.8984 20.3864C14.827 20.4171 14.75 20.433 14.6723 20.433C14.5945 20.433 14.5176 20.4171 14.4461 20.3864C14.3747 20.3557 14.3102 20.3107 14.2566 20.2542L12.4858 18.4622C12.4311 18.4091 12.3875 18.3457 12.3576 18.2755C12.3276 18.2054 12.3118 18.13 12.3112 18.0537C12.3143 17.9 12.3769 17.7536 12.4858 17.6453L13.4917 16.6701C13.2672 16.2566 13.0861 15.8209 12.9513 15.3699H11.5297C11.3776 15.3699 11.2317 15.3093 11.1241 15.2014C11.0165 15.0936 10.9561 14.9473 10.9561 14.7947V12.2942C10.955 12.218 10.969 12.1423 10.9973 12.0716C11.0257 12.0008 11.0677 11.9364 11.1211 11.8822C11.1745 11.8279 11.2381 11.7847 11.3083 11.7553C11.3784 11.7259 11.4537 11.7108 11.5297 11.7108H12.9513C13.0847 11.2619 13.2658 10.8288 13.4917 10.4188L12.4858 9.34361C12.4294 9.28989 12.3846 9.22524 12.3539 9.1536C12.3233 9.08195 12.3075 9.00481 12.3075 8.92685C12.3075 8.8489 12.3233 8.77175 12.3539 8.70011C12.3846 8.62847 12.4294 8.56382 12.4858 8.5101L14.2732 6.71806C14.3268 6.66157 14.3913 6.61659 14.4627 6.58586C14.5342 6.55512 14.6111 6.53927 14.6889 6.53927C14.7667 6.53927 14.8436 6.55512 14.9151 6.58586C14.9865 6.61659 15.051 6.66157 15.1046 6.71806L16.1105 7.72661C16.5232 7.5042 16.9579 7.32543 17.4075 7.19316V5.7762C17.4075 5.62289 17.4676 5.47574 17.575 5.36655C17.6823 5.25737 17.8282 5.19494 17.9811 5.19275H20.4752C20.6296 5.19275 20.7776 5.25422 20.8867 5.36364C20.9959 5.47305 21.0572 5.62146 21.0572 5.7762V7.2015C21.5046 7.33231 21.9366 7.51116 22.3458 7.73494L23.3517 6.7264C23.4643 6.62032 23.613 6.56127 23.7674 6.56127C23.9219 6.56127 24.0706 6.62032 24.1831 6.7264L25.9705 8.51844C26.0802 8.62928 26.1417 8.77907 26.1417 8.93519C26.1417 9.09131 26.0802 9.2411 25.9705 9.35194L24.9646 10.3605C25.1918 10.7756 25.373 11.2144 25.505 11.6691H26.9516C27.1059 11.6691 27.2539 11.7306 27.3631 11.84C27.4722 11.9494 27.5335 12.0978 27.5335 12.2525L27.5086 14.7614Z" fill="#F2994A"/>
</svg>
