<svg width="34" height="34" viewBox="0 0 34 34" fill="none" xmlns="http://www.w3.org/2000/svg">
<path fill-rule="evenodd" clip-rule="evenodd" d="M2.01081 0H7.62747C8.12581 0 8.59158 0.217802 8.94048 0.552117C9.27251 0.887018 9.47255 1.35541 9.47255 1.87415V7.51301C9.47255 8.03175 9.27251 8.50015 8.94048 8.83505C8.59158 9.16936 8.12639 9.38716 7.62747 9.38716H2.01081C1.51247 9.38716 1.04727 9.16936 0.697794 8.83505C0.36576 8.50015 0.166308 8.03175 0.166308 7.51301V1.87415C0.166308 1.35541 0.36576 0.887018 0.697794 0.552117C1.04669 0.217802 1.51189 0 2.01081 0ZM26.3888 24.614H31.9892C32.5044 24.614 32.9702 24.8312 33.3022 25.165C33.6342 25.4999 33.85 25.9688 33.85 26.487V32.1258C33.85 32.6452 33.6342 33.1142 33.3022 33.4479C32.9702 33.7828 32.5044 34 31.9892 34H26.3888C25.8736 34 25.4084 33.7828 25.0758 33.4479C24.7269 33.1142 24.528 32.6452 24.528 32.1258V26.487C24.528 25.9688 24.7275 25.4999 25.0758 25.165C25.409 24.8312 25.8742 24.614 26.3888 24.614ZM14.0757 24.614H19.6923C20.1907 24.614 20.6559 24.8312 21.0053 25.165C21.3374 25.4999 21.5368 25.9688 21.5368 26.487V32.1258C21.5368 32.6452 21.3374 33.1142 21.0053 33.4479C20.6559 33.7828 20.1912 34 19.6923 34H14.0757C13.5773 34 13.1115 33.7828 12.7626 33.4479C12.43 33.1142 12.2306 32.6452 12.2306 32.1258V26.487C12.2306 25.9688 12.43 25.4999 12.7626 25.165C13.1115 24.8312 13.5767 24.614 14.0757 24.614ZM1.86136 24.614H7.46174C7.97694 24.614 8.44214 24.8312 8.77476 25.165C9.10679 25.4999 9.32253 25.9688 9.32253 26.487V32.1258C9.32253 32.6452 9.10679 33.1142 8.77476 33.4479C8.44214 33.7828 7.97694 34 7.46174 34H1.86136C1.34616 34 0.880383 33.7828 0.548349 33.4479C0.216316 33.1142 0 32.6452 0 32.1258V26.487C0 25.9688 0.216316 25.4999 0.548349 25.165C0.880383 24.8312 1.34616 24.614 1.86136 24.614ZM26.4557 12.3152H32.0723C32.5707 12.3152 33.0365 12.516 33.3854 12.8509C33.7174 13.2022 33.9174 13.6706 33.9174 14.1724V19.8282C33.9174 20.33 33.7174 20.7978 33.3854 21.1502C33.0365 21.484 32.5713 21.6854 32.0723 21.6854H26.4557C25.9573 21.6854 25.4921 21.484 25.1427 21.1502C24.8106 20.7978 24.6112 20.3306 24.6112 19.8282V14.1724C24.6112 13.6706 24.8106 13.2022 25.1427 12.8509C25.4921 12.516 25.9568 12.3152 26.4557 12.3152ZM14.1582 12.3152H19.7586C20.2738 12.3152 20.7396 12.516 21.0716 12.8509C21.4205 13.2022 21.6194 13.6706 21.6194 14.1724V19.8282C21.6194 20.33 21.4199 20.7978 21.0716 21.1502C20.7396 21.484 20.2738 21.6854 19.7586 21.6854H14.1582C13.643 21.6854 13.1773 21.484 12.8452 21.1502C12.5132 20.7978 12.2969 20.3306 12.2969 19.8282V14.1724C12.2969 13.6706 12.5132 13.2022 12.8452 12.8509C13.1778 12.516 13.6436 12.3152 14.1582 12.3152ZM1.94394 12.3152H7.54431C8.05952 12.3152 8.52529 12.516 8.85733 12.8509C9.18936 13.2022 9.40568 13.6706 9.40568 14.1724V19.8282C9.40568 20.33 9.18936 20.7978 8.85733 21.1502C8.52529 21.484 8.05952 21.6854 7.54431 21.6854H1.94394C1.42873 21.6854 0.963537 21.484 0.630922 21.1502C0.282025 20.7978 0.0831537 20.3306 0.0831537 19.8282V14.1724C0.0831537 13.6706 0.282606 13.2022 0.630922 12.8509C0.964118 12.516 1.42931 12.3152 1.94394 12.3152ZM26.5388 0H32.1386C32.6538 0 33.1196 0.217802 33.4516 0.552117C33.8011 0.887018 34 1.35541 34 1.87415V7.51301C34 8.03175 33.8005 8.50015 33.4516 8.83505C33.1196 9.16936 32.6538 9.38716 32.1386 9.38716H26.5388C26.0231 9.38716 25.5579 9.16936 25.2258 8.83505C24.8932 8.50015 24.6775 8.03175 24.6775 7.51301V1.87415C24.6775 1.35541 24.8932 0.887018 25.2258 0.552117C25.5747 0.217802 26.0236 0 26.5388 0ZM14.2414 0H19.8418C20.357 0 20.8227 0.217802 21.1548 0.552117C21.4868 0.887018 21.7031 1.35541 21.7031 1.87415V7.51301C21.7031 8.03175 21.4868 8.50015 21.1548 8.83505C20.8227 9.16936 20.357 9.38716 19.8418 9.38716H14.2414C13.7262 9.38716 13.261 9.16936 12.9284 8.83505C12.5963 8.50015 12.3806 8.03175 12.3806 7.51301V1.87415C12.3806 1.35541 12.5963 0.887018 12.9284 0.552117C13.261 0.217802 13.7262 0 14.2414 0Z" fill="#9B51E0"/>
</svg>
