<svg width="34" height="37" viewBox="0 0 34 37" fill="none" xmlns="http://www.w3.org/2000/svg">
<path d="M17.0005 19.0063C14.1671 19.0063 11.8315 21.3432 11.8315 24.2642C11.8315 26.3285 13.0185 28.12 14.7414 28.9769V34.7021C14.7414 35.9874 15.7369 37 17.0005 37C18.264 37 19.2595 35.9874 19.2595 34.7021V28.9769C20.9824 28.12 22.1694 26.3285 22.1694 24.2642C22.1694 21.3821 19.8338 19.0063 17.0005 19.0063Z" fill="#EB5757"/>
<path d="M0 7.2442L3.44594 11.2947C6.8536 7.63368 11.6396 5.33579 17 5.33579C22.3221 5.33579 27.1464 7.63368 30.5541 11.2947L34 7.2442C29.6734 2.76525 23.6622 0 17 0C10.3761 0 4.36486 2.76525 0 7.2442Z" fill="#EB5757"/>
<path d="M17.0001 9.50317C12.6736 9.50317 8.80644 11.4116 6.16455 14.4884L9.53391 18.4611C11.2569 16.1632 13.9754 14.6832 17.0001 14.6832C20.0249 14.6832 22.7434 16.1632 24.4663 18.4611L27.8357 14.4884C25.1938 11.4116 21.3267 9.50317 17.0001 9.50317Z" fill="#EB5757"/>
</svg>
