<svg width="37" height="34" viewBox="0 0 37 34" fill="none" xmlns="http://www.w3.org/2000/svg">
<path fill-rule="evenodd" clip-rule="evenodd" d="M21.8205 20.2583C26.2795 20.0222 32.7308 18.0861 37 15.7722V30.6944C37 32.5361 35.5295 34 33.6795 34H3.32051C1.47051 34 0 32.5361 0 30.6944V15.8194C4.26923 18.1333 10.7205 20.0222 15.1795 20.3056V21.7222C15.1795 22.7611 16.0333 23.6111 17.0769 23.6111H19.9231C20.9667 23.6111 21.8205 22.7611 21.8205 21.7222V20.2583ZM37 8.97222V13.6472C33.0154 16.0556 26.3744 18.1333 21.8205 18.4167V17C21.8205 15.9611 20.9667 15.1111 19.9231 15.1111H17.0769C16.0333 15.1111 15.1795 15.9611 15.1795 17V18.3694C10.6256 18.0861 3.98462 16.0083 0 13.6V8.97222C0 7.13056 1.47051 5.66667 3.32051 5.66667H11.3846V4.25C11.3846 1.88889 13.2821 0 15.6538 0H21.3462C23.7179 0 25.6154 1.88889 25.6154 4.25V5.66667H33.6795C35.5295 5.66667 37 7.13056 37 8.97222ZM23.7179 4.25C23.7179 2.92778 22.6744 1.88889 21.3462 1.88889H15.6538C14.3256 1.88889 13.2821 2.92778 13.2821 4.25V5.66667H23.7179V4.25ZM19.9231 17H17.0769V21.7222H19.9231V17Z" fill="#786216"/>
</svg>
