<svg width="16" height="20" viewBox="0 0 16 20" fill="none" xmlns="http://www.w3.org/2000/svg">
<path d="M8.0013 20C9.16145 20 10.1107 19.0769 10.1107 17.9487H5.89194C5.89194 19.0769 6.83061 20 8.0013 20ZM14.3294 13.8462V8.71795C14.3294 5.56923 12.5997 2.93333 9.58332 2.2359V1.53846C9.58332 0.68718 8.87668 0 8.0013 0C7.12592 0 6.41928 0.68718 6.41928 1.53846V2.2359C3.39235 2.93333 1.67322 5.55897 1.67322 8.71795V13.8462L0.312688 15.1692C-0.35176 15.8154 0.112299 16.9231 1.05096 16.9231H14.9411C15.8798 16.9231 16.3544 15.8154 15.6899 15.1692L14.3294 13.8462Z" fill="#555F7C"/>
</svg>
