<?xml version="1.0" encoding="UTF-8"?>
<svg width="114px" height="121px" viewBox="0 0 114 121" version="1.1" xmlns="http://www.w3.org/2000/svg" xmlns:xlink="http://www.w3.org/1999/xlink">
    <!-- Generator: Sketch 49.2 (51160) - http://www.bohemiancoding.com/sketch -->
    <title>null-state-face</title>
    <desc>Created with Sketch.</desc>
    <defs></defs>
    <g id="Face-Recognition" stroke="none" stroke-width="1" fill="none" fill-rule="evenodd">
        <g id="face-recognition-engine---null" transform="translate(-826.000000, -300.000000)" fill-rule="nonzero">
            <g id="null-state-face" transform="translate(826.000000, 300.000000)">
                <path d="M79.7142855,26.2053644 L42.2489263,63.8571429 C41.3372164,62.480382 40.4545953,61.0115297 39.7142855,59.3924527 L78.3180234,20.5918367 C78.566285,21.0184482 78.9521591,21.362526 79.0848487,21.8425482 C79.3790931,22.8750064 78.8605294,24.4941959 78.3589715,25.1825763 C78.911211,25.5364367 79.285002,25.8660093 79.7142855,26.2053644 Z M43.8249991,75.9431257 L44.1725054,68.7597825 L82.9022744,30.3877551 C83.2448212,32.4964236 82.3554845,34.8411755 82.0615187,38.1873272 L43.7959181,76.1020408 C43.7982852,76.0441926 43.8249991,75.9961719 43.8249991,75.9431257 Z M59.5610126,12.4285714 C61.2635726,12.4477264 63.4708923,12.7213536 65.8367344,13.1967766 L33.4388747,45.0816327 L33.2389396,44.30385 C32.9413565,43.1226984 33.8755185,41.8648154 35.3194188,41.4902904 C35.44377,41.4614465 35.5730999,41.4375027 35.7145367,41.4231365 C35.6999404,40.9429247 35.6877203,40.4532469 35.6877203,39.9586689 C35.6877203,38.5759442 35.5999163,37.3467937 35.531574,36.0793332 L59.5610126,12.4285714 Z M71.085033,14.877551 C72.6852175,15.5156831 74.1783396,16.3408924 75.6326528,17.334037 L37.5716356,54.877551 C36.5623822,54.7719376 35.7307014,54.2442043 35.5143199,53.3997421 L34.8163263,50.6553511 L71.085033,14.877551 Z M36.6743557,20.9580937 C39.8699688,17.0474122 45.8806728,14.5583091 51.1428569,13.244898 L34.8482585,29.5714286 C34.7133336,26.000082 34.9489113,23.0732893 36.6743557,20.9580937 Z M78.7218054,54.4635933 L18.9184402,114.469388 C17.1445083,113.898664 15.3440765,113.46818 13.5918365,112.815219 L83.5374183,42.6326531 C83.6507979,42.9858355 83.8652575,43.3243208 83.7737935,43.6871519 L81.8550622,51.3197306 L78.8278052,54.3572346 C78.8085732,54.3572346 78.7868812,54.3572346 78.7699973,54.3524103 C78.7531133,54.3958289 78.7362294,54.4248868 78.7218054,54.4635933 Z M97.6734691,90.2027052 L67.5335792,120.576222 C65.0640244,120.770995 62.5969359,120.941478 60.1224487,121 L92.5217067,88.3469388 L97.6734691,90.2027052 Z M87.8775508,86.100658 L53.6669037,120.183673 C51.4617951,120.116182 49.2615097,119.9717 47.0612242,119.793361 L82.7226508,84.2653061 L87.8775508,86.100658 Z M107.469388,93.7807238 L83.3783447,117.872907 C80.5380467,118.46878 77.6833608,118.962017 74.8163263,119.367347 L102.572986,91.6122449 L105.097998,92.5157966 C105.962515,92.8234755 106.687912,93.3411825 107.469388,93.7807238 Z M78.0816324,82.2910604 L40.8157217,119.367347 C38.8045247,119.105088 36.8177855,118.66799 34.8163263,118.308623 L73.956765,79.3673469 C74.8867256,80.6252433 76.1802688,81.615924 77.7229187,82.164775 L78.0816324,82.2910604 Z M72.3673467,74.6088304 L28.929284,117.734694 C27.0659109,117.313854 25.2366639,116.743122 23.3877549,116.239931 L72.0360301,67.9387755 L72.3673467,74.6088304 Z M14.408163,92.4285714 L0.530612,106.306122 C1.40423823,100.613116 5.17599165,95.7519376 10.6729847,93.7764281 L14.408163,92.4285714 Z M35.6326528,84.2653061 L8.65805734,111.204082 C7.02847243,110.525171 5.40369621,109.836655 3.79591812,109.0904 L24.7223068,88.1942568 L35.6326528,84.2653061 Z M114,100.830476 L103.176425,111.851261 C99.7506298,113.187277 96.2715231,114.256297 92.77551,115.285714 L111.210899,96.5102041 C112.362561,97.7968615 113.309994,99.2270038 114,100.830476 Z" id="Combined-Shape" fill="#E0E0E0"></path>
                <path d="M10.1020406,76.3265306 L29.5102038,76.3265306 C30.0624886,76.3265306 30.5102038,76.7742459 30.5102038,77.3265306 C30.5102038,77.8788154 30.0624886,78.3265306 29.5102038,78.3265306 L9.10204057,78.3265306 C8.54975582,78.3265306 8.10204057,77.8788154 8.10204057,77.3265306 L8.10204057,56.9183673 C8.10204057,56.3660826 8.54975582,55.9183673 9.10204057,55.9183673 C9.65432532,55.9183673 10.1020406,56.3660826 10.1020406,56.9183673 L10.1020406,76.3265306 Z M10.1020406,2.40816327 L10.1020406,21.8163265 C10.1020406,22.3686113 9.65432532,22.8163265 9.10204057,22.8163265 C8.54975582,22.8163265 8.10204057,22.3686113 8.10204057,21.8163265 L8.10204057,1.40816326 C8.10204057,0.855878515 8.54975582,0.408163265 9.10204057,0.408163265 L29.5102038,0.408163265 C30.0624886,0.408163265 30.5102038,0.855878515 30.5102038,1.40816326 C30.5102038,1.96044801 30.0624886,2.40816327 29.5102038,2.40816327 L10.1020406,2.40816327 Z M106.061224,56.9183673 C106.061224,56.3660826 106.508939,55.9183673 107.061224,55.9183673 C107.613509,55.9183673 108.061224,56.3660826 108.061224,56.9183673 L108.061224,77.3265306 C108.061224,77.8788154 107.613509,78.3265306 107.061224,78.3265306 L86.653061,78.3265306 C86.1007762,78.3265306 85.653061,77.8788154 85.653061,77.3265306 C85.653061,76.7742459 86.1007762,76.3265306 86.653061,76.3265306 L106.061224,76.3265306 L106.061224,56.9183673 Z M106.061224,2.40816327 L86.653061,2.40816327 C86.1007762,2.40816327 85.653061,1.96044801 85.653061,1.40816326 C85.653061,0.855878515 86.1007762,0.408163265 86.653061,0.408163265 L107.061224,0.408163265 C107.613509,0.408163265 108.061224,0.855878515 108.061224,1.40816326 L108.061224,21.8163265 C108.061224,22.3686113 107.613509,22.8163265 107.061224,22.8163265 C106.508939,22.8163265 106.061224,22.3686113 106.061224,21.8163265 L106.061224,2.40816327 Z" id="Combined-Shape" fill="#2D99DE"></path>
            </g>
        </g>
    </g>
</svg>