<svg width="24" height="24" viewBox="0 0 24 24" fill="none" xmlns="http://www.w3.org/2000/svg">
<path d="M2.79099 21.6577H0.925414C0.899821 21.6577 0.879102 21.6369 0.879102 21.6113V20.1387C0.879102 20.1131 0.858383 20.0923 0.832789 20.0923H0.0465566C0.0209628 20.0923 0.000244141 20.1131 0.000244141 20.1387V23.9132C0.000244141 23.9388 0.0209628 23.9596 0.0465566 23.9596H0.832743C0.858336 23.9596 0.879055 23.9388 0.879055 23.9132V22.3921C0.879055 22.3665 0.899774 22.3458 0.925367 22.3458H2.79094C2.81654 22.3458 2.83725 22.3665 2.83725 22.3921V23.9132C2.83725 23.9388 2.85797 23.9596 2.88357 23.9596H3.67233C3.69792 23.9596 3.71864 23.9388 3.71864 23.9132V20.1387C3.71864 20.1131 3.69792 20.0923 3.67233 20.0923H2.88361C2.85802 20.0923 2.8373 20.1131 2.8373 20.1387V21.6113C2.8373 21.6369 2.81658 21.6577 2.79099 21.6577Z" fill="#555F7C"/>
<path d="M7.19377 22.4091C7.19377 23.0915 6.98509 23.3756 6.25689 23.3756C5.52892 23.3756 5.31376 23.0915 5.31376 22.4091V20.138C5.31376 20.1124 5.29305 20.0916 5.26745 20.0916H4.48699C4.46139 20.0916 4.44067 20.1124 4.44067 20.138V22.4289C4.44067 22.9194 4.48642 23.2597 4.67866 23.4673C5.02042 23.8471 5.52892 23.9999 6.25693 23.9999C6.98513 23.9999 7.48398 23.847 7.82832 23.4673C8.01544 23.2641 8.07385 22.9233 8.07385 22.4289V20.138C8.07385 20.1124 8.05313 20.0916 8.02754 20.0916H7.24013C7.21454 20.0916 7.19382 20.1124 7.19382 20.138L7.19377 22.4091Z" fill="#555F7C"/>
<path d="M10.0033 20.1184L8.27526 23.8929C8.2612 23.9236 8.28361 23.9586 8.31736 23.9586H9.14531C9.1642 23.9586 9.18117 23.9471 9.18825 23.9296L9.53737 23.0669C9.54445 23.0494 9.56142 23.0379 9.58031 23.0379H11.334C11.3526 23.0379 11.3695 23.0492 11.3767 23.0664L11.738 23.9301C11.7452 23.9473 11.7621 23.9586 11.7808 23.9586H12.6569C12.6907 23.9586 12.7131 23.9235 12.699 23.8928L10.9604 20.1183C10.9528 20.1019 10.9364 20.0914 10.9183 20.0914H10.0454C10.0273 20.0913 10.0109 20.1018 10.0033 20.1184ZM9.86071 22.2845L10.4044 20.966C10.4201 20.9281 10.4737 20.9277 10.4898 20.9655L11.0528 22.284C11.0659 22.3146 11.0434 22.3486 11.0102 22.3486H9.90351C9.87056 22.3486 9.84815 22.3151 9.86071 22.2845Z" fill="#555F7C"/>
<path d="M16.8388 22.922L15.9572 20.1238C15.9512 20.1045 15.9333 20.0914 15.913 20.0914H14.945C14.9242 20.0914 14.9059 20.1054 14.9004 20.1255L14.1359 22.9157C14.1237 22.9601 14.0614 22.9615 14.0471 22.9178L13.1375 20.1234C13.1313 20.1043 13.1135 20.0914 13.0935 20.0914H12.2493C12.2171 20.0914 12.1948 20.1232 12.2057 20.1535L13.5654 23.928C13.572 23.9464 13.5894 23.9587 13.609 23.9587H14.612C14.633 23.9587 14.6513 23.9446 14.6567 23.9244L15.3853 21.226C15.3974 21.1811 15.4606 21.18 15.4743 21.2244L16.308 23.926C16.314 23.9454 16.332 23.9587 16.3523 23.9587H17.3635C17.3834 23.9587 17.4011 23.9459 17.4074 23.927L18.6673 20.1525C18.6774 20.1225 18.655 20.0915 18.6234 20.0915H17.8213C17.8009 20.0915 17.7829 20.1048 17.777 20.1244L16.9274 22.9216C16.9141 22.9651 16.8525 22.9655 16.8388 22.922Z" fill="#555F7C"/>
<path d="M18.8774 22.0957C18.8774 22.7959 19.0869 23.303 19.5177 23.619C19.925 23.9197 20.3154 23.9586 20.8218 23.9586H22.2602C22.2858 23.9586 22.3065 23.9379 22.3065 23.9123V23.3322C22.3065 23.3066 22.2858 23.2858 22.2602 23.2858H20.8631C20.1874 23.2858 19.8875 23.0427 19.8684 22.3855C19.8676 22.3595 19.8889 22.3379 19.9149 22.3379H22.2602C22.2858 22.3379 22.3065 22.3171 22.3065 22.2915V21.7096C22.3065 21.6839 22.2858 21.6632 22.2602 21.6632H19.9235C19.8965 21.6632 19.8747 21.6399 19.8771 21.613C19.9278 21.0405 20.2458 20.766 20.8631 20.766H22.2602C22.2858 20.766 22.3065 20.7453 22.3065 20.7197V20.1377C22.3065 20.1121 22.2858 20.0914 22.2602 20.0914H20.845C19.5002 20.0913 18.8774 20.7291 18.8774 22.0957Z" fill="#555F7C"/>
<path d="M23.082 20.1377V23.912C23.082 23.9376 23.1028 23.9583 23.1283 23.9583H23.9538C23.9794 23.9583 24.0001 23.9376 24.0001 23.912V20.1377C24.0001 20.1121 23.9794 20.0914 23.9538 20.0914H23.1283C23.1028 20.0914 23.082 20.1122 23.082 20.1377Z" fill="#555F7C"/>
<path d="M10.1453 13.5818C5.30726 11.0459 4.11481 9.72533 3.93748 9.58272C3.87752 9.53429 2.8017 8.64634 2.72351 7.17743C2.62292 5.84236 3.52653 4.50954 4.13749 3.77171C3.95149 3.53027 3.81513 3.35903 3.74037 3.2663C3.70479 3.22219 3.63921 3.21914 3.59946 3.25955C3.2262 3.63857 1.59209 5.40627 1.7255 7.17748C1.80368 8.64638 2.87951 9.53433 2.93946 9.58276C2.98648 9.62082 4.56851 11.3138 10.2331 14.1377C10.2478 14.1409 10.3012 14.1593 10.3324 14.1205C10.3324 14.1205 10.3763 14.0854 10.3533 14.0297C10.2846 13.8794 10.2152 13.7303 10.1453 13.5818Z" fill="#555F7C"/>
<path d="M5.14711 15.0353C5.14711 15.0353 4.44164 15.0162 3.73383 14.727C3.73383 14.727 2.20698 14.2135 1.40706 12.5203C1.40706 12.5203 0.772369 11.3415 1.08545 9.79777C0.718041 9.59754 0.448463 9.45211 0.31201 9.37867C0.259463 9.35042 0.193745 9.37712 0.176917 9.43442C-0.328255 11.1528 0.408994 12.5203 0.408994 12.5203C1.20892 14.2135 2.73577 14.727 2.73577 14.727C3.44358 15.0162 4.14905 15.0353 4.14905 15.0353C4.19649 15.0441 5.02379 15.0459 6.04003 15.0446C5.52675 15.0437 5.17749 15.0409 5.14711 15.0353Z" fill="#555F7C"/>
<path d="M11.4577 12.3881C10.2506 10.5394 8.16573 7.12101 7.65339 4.84825C7.65302 4.84665 7.65269 4.84529 7.65222 4.8437C7.02939 2.71664 8.10203 0.729895 10.0587 0.221442C10.0587 0.221442 10.1814 0.193708 10.3512 0.157481C10.3222 0.107034 10.2983 0.0688827 10.2808 0.042369C10.2611 0.0123827 10.2262 -0.00366627 10.1906 0.000885637C9.83518 0.046264 9.06067 0.221442 9.06067 0.221442C7.10397 0.729895 6.03133 2.71659 6.65416 4.84365C6.65463 4.8452 6.65496 4.84661 6.65533 4.8482C7.30825 7.74444 10.5149 12.5015 11.2045 13.4994C11.2525 13.5485 11.2917 13.5277 11.2917 13.5277C11.3655 13.5089 11.3597 13.4367 11.3597 13.4367L11.3614 13.4377C11.3972 13.0786 11.429 12.7295 11.4577 12.3881Z" fill="#555F7C"/>
<path d="M14.6497 0.161564C14.4419 0.115247 14.1357 0.0519899 13.8145 0.003092C13.5768 -0.0331356 11.626 3.38639 12.6337 13.4457C12.6427 13.5115 12.6904 13.5269 12.6904 13.5269C12.7614 13.5555 12.7967 13.4867 12.7967 13.4867L12.7971 13.4877C12.9475 13.2704 13.2095 12.886 13.5348 12.3883C12.8636 4.35763 14.1504 0.905498 14.6497 0.161564Z" fill="#555F7C"/>
<path d="M15.4218 15.6172L14.4371 15.5832L14.4365 15.5845C14.4365 15.5845 14.4317 15.5852 14.4243 15.5871C14.3691 15.6016 14.3367 15.6636 14.3615 15.7151C14.366 15.7244 14.3724 15.7332 14.3813 15.7406V15.7415C15.0869 16.2487 17.2288 17.7479 18.2603 18.0378C18.2603 18.0378 18.7382 18.2006 19.423 18.0062C18.3144 17.6477 16.1898 16.1677 15.4218 15.6172Z" fill="#555F7C"/>
<path d="M23.9778 10.2107C23.9527 9.95806 23.9042 9.69349 23.8229 9.4215C23.8055 9.3635 23.7402 9.33525 23.687 9.36401C22.8694 9.80564 17.2744 12.8433 14.2746 14.8671V14.8684C14.193 14.9231 14.2434 15.0315 14.3115 15.0315C14.6172 15.0321 15.1471 15.033 15.7639 15.0336C18.2228 13.426 21.874 11.3713 23.9778 10.2107Z" fill="#555F7C"/>
<path d="M20.8644 3.76527C20.6626 3.52491 20.4922 3.34935 20.3994 3.25766C20.3595 3.21815 20.2947 3.22162 20.2594 3.26535C19.7433 3.90544 16.2624 8.31614 13.6595 14.0008H13.6608C13.6192 14.0905 13.7116 14.169 13.7805 14.1292C14.1557 13.9423 14.5119 13.7607 14.8511 13.5843C17.0514 8.90663 19.7938 5.15407 20.8644 3.76527Z" fill="#555F7C"/>
<path d="M3.34574 16.1271H3.34555C3.34306 16.1232 3.30083 16.0672 3.26333 15.9933C3.25963 15.9871 3.25578 15.9809 3.25208 15.9748C3.2465 15.9654 3.24327 15.9556 3.24116 15.9458C3.22128 15.8987 3.20642 15.8479 3.2053 15.8002L2.33202 15.8308C2.25974 15.8333 2.21708 15.9125 2.25407 15.9748C3.0575 17.3282 4.3535 18.3505 5.70148 18.0362C4.78119 17.8275 3.9432 17.0706 3.34574 16.1271Z" fill="#555F7C"/>
<path d="M3.74017 3.26632C3.70459 3.22216 3.63901 3.21916 3.59922 3.25956C3.22595 3.63859 1.59185 5.40628 1.72525 7.17749C1.80344 8.64639 2.87927 9.53434 2.93922 9.58277C2.98609 9.62064 4.56578 11.3125 10.2329 14.1377C10.2475 14.1409 10.3009 14.1593 10.3321 14.1205C10.3321 14.1205 10.3761 14.0854 10.3531 14.0297C7.74882 8.33433 4.2602 3.91152 3.74017 3.26632Z" fill="#555F7C"/>
<path d="M9.64736 15.645C9.62894 15.5819 9.55188 15.5819 9.55188 15.5819V15.5781L2.33155 15.8305C2.25927 15.8331 2.21661 15.9123 2.25355 15.9745C3.06167 17.3359 4.36817 18.3628 5.72468 18.0309C6.6941 17.791 8.88855 16.2571 9.61263 15.7379H9.61071C9.66551 15.6851 9.64736 15.645 9.64736 15.645Z" fill="#555F7C"/>
<path d="M9.73148 14.8732C6.73219 12.8472 1.13171 9.81935 0.31201 9.37843C0.259463 9.35018 0.193745 9.37688 0.176916 9.43418C-0.328255 11.1525 0.408994 12.5201 0.408994 12.5201C1.20891 14.2133 2.73582 14.7267 2.73582 14.7267C3.44363 15.016 4.1491 15.0351 4.1491 15.0351C4.25883 15.0554 8.53589 15.0382 9.68259 15.0325C9.73148 15.0313 9.75665 14.9838 9.75665 14.9838C9.79392 14.9249 9.73148 14.8732 9.73148 14.8732Z" fill="#555F7C"/>
<path d="M9.06067 0.221306C7.10397 0.729759 6.03133 2.71646 6.65416 4.84351C6.65463 4.84506 6.65496 4.84647 6.65533 4.84806C7.30825 7.7443 10.5149 12.5013 11.2045 13.4993C11.2525 13.5484 11.2917 13.5276 11.2917 13.5276C11.3655 13.5088 11.3598 13.4366 11.3598 13.4366L11.3614 13.4375C12.3447 3.59554 10.5508 0.452374 10.2808 0.0422798C10.2611 0.0122935 10.2262 -0.00375549 10.1906 0.000749493C9.83524 0.0461278 9.06067 0.221306 9.06067 0.221306Z" fill="#555F7C"/>
<path d="M17.3575 2.5046C17.357 2.50319 17.3566 2.50183 17.3561 2.50038C17.3382 2.43576 16.8375 0.69214 14.9172 0.224184C14.9172 0.224184 14.3899 0.0906295 13.8145 0.00296993C13.5768 -0.0332577 11.626 3.38627 12.6337 13.4455C12.6427 13.5114 12.6905 13.5268 12.6905 13.5268C12.7614 13.5553 12.7967 13.4865 12.7967 13.4865L12.7971 13.4875C13.5065 12.4622 16.6955 7.72786 17.3445 4.8456C17.3445 4.84555 17.6958 3.45055 17.3575 2.5046Z" fill="#555F7C"/>
<path d="M14.4368 15.5843C14.4368 15.5843 14.432 15.585 14.4246 15.587C14.3694 15.6014 14.3369 15.6634 14.3617 15.7148C14.3662 15.7241 14.3726 15.7329 14.3815 15.7404V15.7413C15.0872 16.2485 17.2291 17.7476 18.2605 18.0376C18.2605 18.0376 20.1053 18.6671 21.7412 15.9774C21.7789 15.9153 21.7361 15.8352 21.6636 15.8327L14.4373 15.583L14.4368 15.5843Z" fill="#555F7C"/>
<path d="M23.8231 9.42126C23.8058 9.36325 23.7405 9.335 23.6872 9.36377C22.8697 9.8054 17.2746 12.8431 14.2748 14.8669V14.8682C14.1932 14.9229 14.2437 15.0312 14.3117 15.0312C15.4729 15.0338 19.8688 15.0395 19.9785 15.0205C19.9785 15.0205 20.5451 14.995 21.2476 14.7267C21.2476 14.7267 22.8112 14.2292 23.6237 12.4513C23.6237 12.4513 24.3153 11.0661 23.8231 9.42126Z" fill="#555F7C"/>
<path d="M22.273 7.16774C22.3886 5.33623 20.7708 3.62462 20.3997 3.25741C20.3597 3.2179 20.2949 3.22137 20.2596 3.26511C19.7435 3.90519 16.2627 8.3159 13.6598 14.0006H13.661C13.6194 14.0902 13.7119 14.1687 13.7807 14.129C19.2168 11.4206 20.788 9.80634 21.0599 9.58288C21.1167 9.53619 22.2117 8.61802 22.273 7.16774Z" fill="#555F7C"/>
</svg>
