<svg width="29" height="27" viewBox="0 0 29 27" fill="none" xmlns="http://www.w3.org/2000/svg">
<path d="M4.16453 17.3806C4.16889 17.3851 4.17511 17.3869 4.17978 17.3902C4.21555 17.4219 4.25538 17.45 4.30111 17.4684C4.35245 17.4889 4.40689 17.4998 4.46165 17.4998C4.51641 17.4998 4.57085 17.4889 4.62219 17.4684C4.66792 17.45 4.70775 17.4222 4.74353 17.3902C4.74819 17.386 4.7541 17.3848 4.75877 17.3806L6.40678 15.7823C6.57074 15.6233 6.57074 15.3654 6.40678 15.2067C6.24344 15.0477 5.97681 15.0477 5.81285 15.2067L4.88166 16.1096V11.6225H12.8585C13.0903 11.6225 13.2785 11.4403 13.2785 11.2153V7.91402H14.0803V16.1093L13.1488 15.2061C12.9854 15.0471 12.7188 15.0471 12.5548 15.2061C12.3912 15.3651 12.3912 15.6233 12.5548 15.782L14.2031 17.38C14.2417 17.4174 14.2881 17.4476 14.3394 17.4681C14.3908 17.4886 14.4452 17.4995 14.5 17.4995C14.5547 17.4995 14.6092 17.4886 14.6605 17.4681C14.7121 17.4476 14.7582 17.4177 14.7968 17.38L16.4451 15.782C16.609 15.6233 16.609 15.3651 16.4454 15.2061C16.2817 15.0471 16.0154 15.0471 15.8515 15.2061L14.92 16.1093V7.91402H15.7214V11.2153C15.7214 11.4403 15.9093 11.6225 16.1414 11.6225H24.1198V16.1096L23.188 15.2067C23.0253 15.0477 22.758 15.0477 22.595 15.2067C22.4317 15.3654 22.4317 15.6233 22.5956 15.7823L24.2436 17.3803C24.2825 17.418 24.3279 17.4476 24.3799 17.4684C24.4312 17.4889 24.4857 17.4998 24.5411 17.4998C24.5961 17.4998 24.6509 17.4889 24.7022 17.4684C24.7536 17.4482 24.7996 17.418 24.8385 17.3803L26.4865 15.7823C26.6495 15.6233 26.6495 15.3654 26.4865 15.2067C26.3232 15.0477 26.0556 15.0477 25.8932 15.2067L24.9617 16.1096V11.2153C24.9617 10.9902 24.7738 10.808 24.5414 10.808H16.5611V7.91402H18.4618V0.230347H10.5375V7.91402H12.4382V10.808H4.46165C4.22987 10.808 4.04164 10.9902 4.04164 11.2153V16.1096L3.11045 15.2067C2.94649 15.0477 2.67986 15.0477 2.51653 15.2067C2.35256 15.3654 2.35256 15.6233 2.51653 15.7823L4.16453 17.3806Z" fill="#555F7C"/>
<path d="M18.462 18.3939H10.5381V26.0776H18.462V18.3939Z" fill="#555F7C"/>
<path d="M28.5 18.3939H20.5754V26.0776H28.5V18.3939Z" fill="#555F7C"/>
<path d="M8.424 18.3939H0.499756V26.0776H8.424V18.3939Z" fill="#555F7C"/>
</svg>
