<svg width="29" height="28" viewBox="0 0 29 28" fill="none" xmlns="http://www.w3.org/2000/svg">
<path d="M13.8415 19.4859C14.2101 20.131 14.7631 20.6533 15.3775 21.0219C15.7462 21.2369 16.1455 21.4213 16.5756 21.5134C16.9135 21.6056 17.2822 21.6363 17.6816 21.6363C18.0502 21.6363 18.4189 21.5749 18.7875 21.5134C19.2176 21.4213 19.617 21.2369 19.9856 21.0219C20.6308 20.6533 21.153 20.1003 21.5217 19.4859C21.7367 19.1172 21.921 18.7178 22.0132 18.2878C22.1054 17.9498 22.1361 17.5812 22.1361 17.1818C22.1361 16.8132 22.0746 16.4445 22.0132 16.0759C21.921 15.6458 21.7367 15.2464 21.5217 14.8777C21.153 14.2326 20.6 13.7104 19.9856 13.3417C19.617 13.1267 19.2176 12.9423 18.7875 12.8502C18.4496 12.758 18.0809 12.7273 17.6816 12.7273C17.3129 12.7273 16.9443 12.7887 16.5756 12.8502C16.1455 12.9423 15.7462 13.1267 15.3775 13.3417C14.7324 13.7104 14.2101 14.2633 13.8415 14.8777C13.6264 15.2464 13.4421 15.6458 13.3499 16.0759C13.2578 16.4138 13.2271 16.7824 13.2271 17.1818C13.2271 17.5505 13.2885 17.9191 13.3499 18.2878C13.4421 18.7178 13.6264 19.1172 13.8415 19.4859Z" fill="#555F7C"/>
<path d="M26.9911 15.6115H26.3379C26.1126 14.2629 25.5945 13.0058 24.8286 11.9315L25.2791 11.4744C25.8423 10.9029 25.8423 9.96581 25.2791 9.37153C24.716 8.8001 23.7699 8.8001 23.2067 9.37153L22.7562 9.82867C21.72 9.05153 20.4811 8.52582 19.1521 8.29725V7.63439C19.1521 6.81154 18.4988 6.14868 17.6879 6.14868C17.2599 6.14868 16.8769 6.33154 16.6066 6.65154C16.7868 6.97154 16.8769 7.33725 16.8769 7.72582C16.8769 8.77724 16.1336 9.66867 15.1649 9.89724C15.0298 10.3772 14.8496 10.8344 14.6018 11.2458C14.7144 11.4058 14.782 11.5887 14.8496 11.7715C15.2776 11.5429 15.7506 11.3372 16.2237 11.2229C16.6967 11.1087 17.1923 11.0401 17.6879 11.0401C18.1834 11.0401 18.679 11.1087 19.1521 11.2229C19.7152 11.3601 20.2558 11.5887 20.7289 11.8858C21.5849 12.3887 22.2832 13.1201 22.8013 13.9887C23.0941 14.4915 23.3194 15.0172 23.4545 15.5886C23.5672 16.0686 23.6347 16.5715 23.6347 17.0744C23.6347 17.5772 23.5672 18.0801 23.4545 18.5601C23.3194 19.1315 23.0941 19.6801 22.8013 20.1601C22.3057 21.0286 21.5849 21.7372 20.7289 22.2629C20.2333 22.56 19.7152 22.7886 19.1521 22.9258C18.679 23.04 18.1834 23.1086 17.6879 23.1086C17.1923 23.1086 16.6967 23.04 16.2237 22.9258C15.6605 22.7886 15.1199 22.56 14.6468 22.2629C13.7909 21.7601 13.0925 21.0286 12.5744 20.1601C12.2816 19.6572 12.0563 19.1315 11.9212 18.5601C11.8086 18.0801 11.741 17.5772 11.741 17.0744C11.741 16.5715 11.8086 16.0686 11.9212 15.5886C12.0113 15.2458 12.1239 14.9029 12.2591 14.5829C12.0113 14.5144 11.786 14.4229 11.5833 14.2858C11.1553 14.5144 10.7048 14.6972 10.2543 14.8572C10.0515 15.8629 9.17301 16.5944 8.11429 16.5944C7.75387 16.5944 7.41598 16.5029 7.10062 16.3429C6.98799 16.5486 6.92041 16.8001 6.92041 17.0515C6.92041 17.8744 7.57367 18.5372 8.3846 18.5372H9.03786C9.26312 19.8858 9.78122 21.1429 10.5471 22.2172L10.0966 22.6743C9.53343 23.2458 9.53343 24.1829 10.0966 24.7772C10.3894 25.0743 10.7498 25.2115 11.1328 25.2115C11.5157 25.2115 11.8761 25.0743 12.169 24.7772L12.6195 24.32C13.6782 25.0743 14.9172 25.6229 16.2462 25.8515V26.5143C16.2462 27.3372 16.8994 28 17.7104 28C18.5213 28 19.1746 27.3372 19.1746 26.5143V25.8515C20.5036 25.6229 21.7425 25.0972 22.8013 24.32L23.2518 24.7772C23.5446 25.0743 23.905 25.2115 24.288 25.2115C24.6709 25.2115 25.0313 25.0743 25.3242 24.7772C25.8873 24.2058 25.8873 23.2458 25.3242 22.6743L24.8737 22.2172C25.617 21.1429 26.1577 19.8858 26.3829 18.5372H27.0362C27.8471 18.5372 28.5004 17.8744 28.5004 17.0515C28.4553 16.2744 27.8021 15.6115 26.9911 15.6115Z" fill="#555F7C"/>
<path d="M7.05508 14.3999C7.05508 14.9714 7.52813 15.4514 8.09128 15.4514C8.65443 15.4514 9.12748 14.9714 9.12748 14.3999V13.9428C10.0736 13.7828 10.9521 13.4171 11.6954 12.8685L12.0108 13.1885C12.2135 13.3942 12.4839 13.4857 12.7316 13.4857C13.002 13.4857 13.2497 13.3942 13.4525 13.1885C13.8579 12.7771 13.8579 12.1142 13.4525 11.7028L13.1371 11.3828C13.6777 10.6285 14.0382 9.73711 14.1958 8.77711H14.6464C15.2095 8.77711 15.6826 8.29711 15.6826 7.72569C15.6826 7.15426 15.2095 6.67426 14.6464 6.67426H14.1958C14.0382 5.71426 13.6552 4.82284 13.1371 4.06856L13.4525 3.74856C13.8579 3.33713 13.8579 2.67428 13.4525 2.26285C13.047 1.85142 12.3938 1.85142 11.9883 2.26285L11.6954 2.58285C10.9521 2.03428 10.0736 1.66857 9.12748 1.50857V1.05142C9.12748 0.479998 8.65443 0 8.09128 0C7.52813 0 7.05508 0.479998 7.05508 1.05142V1.50857C6.13151 1.66857 5.253 2.05714 4.50964 2.58285L4.19427 2.26285C3.7888 1.85142 3.13555 1.85142 2.73008 2.26285C2.32461 2.67428 2.32461 3.33713 2.73008 3.74856L3.04544 4.06856C2.50482 4.82284 2.1444 5.71426 1.98672 6.67426H1.5362C0.973047 6.67426 0.5 7.15426 0.5 7.72569C0.5 8.29711 0.973047 8.77711 1.5362 8.77711H1.98672C2.1444 9.73711 2.50482 10.6285 3.04544 11.3828L2.73008 11.7028C2.32461 12.1142 2.32461 12.7771 2.73008 13.1885C2.93281 13.3942 3.20313 13.4857 3.45091 13.4857C3.72122 13.4857 3.99154 13.3942 4.17175 13.1885L4.48711 12.8685C5.23047 13.4171 6.10899 13.7828 7.05508 13.9428V14.3999ZM6.3793 10.6514C5.90625 10.3542 5.50078 9.96568 5.20794 9.46282C5.05026 9.18854 4.9151 8.89139 4.84753 8.54854C4.77995 8.27425 4.7349 7.99997 4.7349 7.72569C4.7349 7.42854 4.77995 7.15426 4.84753 6.90283C4.93763 6.58283 5.05026 6.28569 5.20794 5.98855C5.50078 5.50855 5.88373 5.09712 6.3793 4.79998C6.64961 4.63998 6.94245 4.50284 7.28034 4.43427C7.55065 4.3657 7.82097 4.31998 8.09128 4.31998C8.38412 4.31998 8.65443 4.3657 8.90222 4.43427C9.21758 4.5257 9.51042 4.63998 9.80326 4.79998C10.2763 5.09712 10.6818 5.48569 10.9746 5.98855C11.1323 6.26283 11.2675 6.55998 11.335 6.90283C11.4026 7.17712 11.4477 7.4514 11.4477 7.72569C11.4477 8.02283 11.4026 8.29711 11.335 8.54854C11.2449 8.86854 11.1323 9.16568 10.9746 9.46282C10.6818 9.94282 10.2988 10.3542 9.80326 10.6514C9.53294 10.8114 9.24011 10.9485 8.90222 11.0171C8.6319 11.0857 8.36159 11.1314 8.09128 11.1314C7.79844 11.1314 7.52813 11.0857 7.28034 11.0171C6.96497 10.9485 6.67214 10.8114 6.3793 10.6514Z" fill="#555F7C"/>
</svg>
