<svg width="28" height="24" viewBox="0 0 28 24" fill="none" xmlns="http://www.w3.org/2000/svg">
<path d="M27.4958 14.4391C27.4431 14.9898 27.4098 15.5405 27.3334 16.0863C26.9116 19.1091 25.6767 21.7173 23.6473 23.9163C23.6209 23.9417 23.5931 23.9654 23.564 23.9873C22.1304 19.4743 19.1714 16.9256 14.5974 16.3424C16.3468 16.0747 17.7182 15.2244 18.6531 13.6945C19.5958 12.1525 19.7835 10.4844 19.2399 8.7508C18.4111 6.10739 15.9514 4.52409 13.2444 4.85617C10.7747 5.15906 8.70999 7.4302 8.48379 10.0125C8.21225 13.1031 10.3529 16.0114 13.3499 16.3484C8.83547 16.9151 5.87807 19.4638 4.42599 24C4.27888 23.8381 4.12281 23.6773 3.97782 23.5044C1.85348 20.992 0.694032 18.0666 0.540072 14.7123C0.531456 14.6198 0.518079 14.5279 0.5 14.4369L0.5 13.7634C0.518231 13.6724 0.531609 13.5805 0.540072 13.488C0.661342 10.6491 1.51234 8.06847 3.13367 5.79073C5.38877 2.62194 8.40312 0.74346 12.1498 0.165213C12.6555 0.0870124 13.1669 0.0550711 13.6763 0H14.3243C14.4025 0.0187635 14.4817 0.0323744 14.5615 0.0407525C17.0576 0.150895 19.3596 0.906471 21.427 2.36586C24.7663 4.72363 26.7379 7.99119 27.3418 12.1685C27.4177 12.695 27.4473 13.2292 27.5 13.7595V14.4363L27.4958 14.4391Z" fill="#555F7C"/>
</svg>
