<?xml version="1.0" encoding="UTF-8"?>
<svg width="120px" height="23px" viewBox="0 0 120 23" version="1.1" xmlns="http://www.w3.org/2000/svg" xmlns:xlink="http://www.w3.org/1999/xlink">
    <!-- Generator: Sketch 47.1 (45422) - http://www.bohemiancoding.com/sketch -->
    <title>veritone-logo-white</title>
    <desc>Created with Sketch.</desc>
    <defs></defs>
    <g id="Page-1" stroke="none" stroke-width="1" fill="none" fill-rule="evenodd">
        <g id="veritone-logo-white" fill-rule="nonzero" fill="#FFFFFF">
            <path d="M118.228506,16.5705721 L118.386799,16.5705721 C118.571411,16.5705721 118.720994,16.5090347 118.720994,16.3595462 C118.720994,16.2276669 118.624238,16.1396211 118.413213,16.1396211 C118.325167,16.1396211 118.263629,16.1485204 118.228506,16.1573249 L118.228506,16.5705721 Z M118.219701,17.3797412 L117.885506,17.3797412 L117.885506,15.9373998 C118.01748,15.9197907 118.202092,15.8933769 118.439532,15.8933769 C118.71219,15.8933769 118.835359,15.9373998 118.932115,16.0077418 C119.020066,16.0692792 119.081698,16.1748394 119.081698,16.315618 C119.081698,16.4914255 118.949724,16.6057904 118.782626,16.6586179 L118.782626,16.6761323 C118.92331,16.7201552 118.993652,16.8345201 119.037675,17.0279368 C119.081698,17.2477672 119.116821,17.3270084 119.14314,17.3797412 L118.791336,17.3797412 C118.747313,17.3270084 118.720994,17.203839 118.676971,17.0279368 C118.650652,16.8784483 118.562701,16.8081063 118.377994,16.8081063 L118.219701,16.8081063 L118.219701,17.3797412 Z M117.331386,16.6321095 C117.331386,17.2742756 117.815164,17.7842785 118.457235,17.7842785 C119.081698,17.793083 119.556482,17.2742756 119.556482,16.6410087 C119.556482,15.9989372 119.081698,15.4800351 118.439532,15.4800351 C117.815164,15.4800351 117.331386,15.9989372 117.331386,16.6321095 L117.331386,16.6321095 Z M119.925896,16.6321095 C119.925896,17.4412786 119.275114,18.0833501 118.448336,18.0833501 C117.621653,18.0833501 116.961972,17.4412786 116.961972,16.6321095 C116.961972,15.823035 117.621653,15.1898627 118.457235,15.1898627 C119.275114,15.1898627 119.925896,15.823035 119.925896,16.6321095 L119.925896,16.6321095 Z M108.185782,6.7331564 L108.185782,10.760455 L114.861422,10.760455 L114.861422,12.0848152 L108.185782,12.0848152 L108.185782,16.1303128 L115.659526,16.1303128 L115.659526,17.4362844 L106.825213,17.4362844 L106.825213,5.42699526 L115.659526,5.42699526 L115.659526,6.7331564 L108.185782,6.7331564 Z M104.766066,5.42699526 L104.766066,17.4362844 L103.187867,17.4362844 L95.7683412,7.29543128 L95.7683412,17.4362844 L94.4077725,17.4362844 L94.4077725,5.42699526 L95.9859716,5.42699526 L103.405498,15.5316398 L103.405498,5.42699526 L104.766066,5.42699526 Z M86.3283412,16.257327 C87.7552607,16.257327 88.9103318,15.7917346 89.7931754,14.8603602 C90.6396209,13.9653839 91.0629384,12.8226351 91.0629384,11.4317346 C91.0629384,10.0408341 90.6396209,8.89789573 89.7931754,8.003109 C88.9103318,7.0717346 87.7552607,6.60614218 86.3283412,6.60614218 C84.9014218,6.60614218 83.7463507,7.0717346 82.8636967,8.003109 C82.0170616,8.89789573 81.5937441,10.0408341 81.5937441,11.4317346 C81.5937441,12.8226351 82.0170616,13.9653839 82.8636967,14.8603602 C83.7463507,15.7917346 84.9014218,16.257327 86.3283412,16.257327 L86.3283412,16.257327 Z M86.3283412,5.28178199 C88.1182938,5.28178199 89.5876777,5.88045498 90.7364929,7.07780095 C91.8612322,8.23893839 92.4235071,9.69012322 92.4235071,11.4317346 C92.4235071,13.1731564 91.8612322,14.6245308 90.7364929,15.7854787 C89.5876777,16.9828246 88.1182938,17.5814976 86.3283412,17.5814976 C84.5385782,17.5814976 83.0691943,16.9828246 81.9201896,15.7854787 C80.7956398,14.6245308 80.2331754,13.1731564 80.2331754,11.4317346 C80.2331754,9.69012322 80.7956398,8.23893839 81.9201896,7.07780095 C83.0691943,5.88045498 84.5385782,5.28178199 86.3283412,5.28178199 L86.3283412,5.28178199 Z M79.8574408,6.7331564 L75.6672986,6.7331564 L75.6672986,17.4362844 L74.3067299,17.4362844 L74.3067299,6.7331564 L70.1163981,6.7331564 L70.1163981,5.42699526 L79.8574408,5.42699526 L79.8574408,6.7331564 Z M66.6521327,17.4362844 L68.0127014,17.4362844 L68.0127014,5.42680569 L66.6521327,5.42680569 L66.6521327,17.4362844 Z M56.6459526,11.3538199 L56.6459526,6.6616872 L59.9646256,6.6616872 C61.7995071,6.6616872 62.7299336,7.45107109 62.7299336,9.00784834 C62.7299336,10.564436 61.7995071,11.3538199 59.9646256,11.3538199 L56.6459526,11.3538199 Z M61.2977062,12.4565687 L61.4269953,12.4222559 C62.2664265,12.1995071 62.9356209,11.7873744 63.416,11.1964739 C63.8950521,10.6061422 64.1380853,9.86964929 64.1380853,9.00784834 C64.1380853,7.91154502 63.7579905,7.03135545 63.0089858,6.39211374 C62.2552417,5.75040758 61.2374218,5.42509953 59.9832038,5.42509953 L55.3141991,5.42509953 L55.3141991,17.4343886 L56.6459526,17.4343886 L56.6459526,12.5905972 L59.8063318,12.5905972 L63.2376114,17.4343886 L64.8178957,17.4343886 L61.2977062,12.4565687 Z M45.8622938,6.7331564 L45.8622938,6.7331564 L45.8622938,10.760455 L52.5379336,10.760455 L52.5379336,12.0848152 L45.8622938,12.0848152 L45.8622938,16.1303128 L53.3360379,16.1303128 L53.3360379,17.4362844 L44.5017251,17.4362844 L44.5017251,5.42699526 L53.3360379,5.42699526 L53.3360379,6.7331564 L45.8622938,6.7331564 Z M42.7623886,5.42695735 L42.7623886,5.42695735 L37.6217251,17.436436 L36.0615355,17.436436 L30.9210616,5.42695735 L32.408455,5.42695735 L36.8416303,15.8944455 L41.2748057,5.42695735 L42.7623886,5.42695735 Z" id="Fill-5"></path>
            <polygon id="Fill-2" opacity="0.36" points="14.5145782 5.68720379e-05 17.9676588 5.92820853 21.430218 5.68720379e-05"></polygon>
            <polygon id="Fill-3" opacity="0.9" points="21.4300664 5.68720379e-05 8.14267299 22.748872 17.0495924 22.748872 25.1923412 8.74868246"></polygon>
            <polygon id="Fill-12" opacity="0.36" points="3.76364815 0 0 8.75200138 8.14572082 22.757346 12.6032349 15.1338719"></polygon>
        </g>
    </g>
</svg>