<?xml version="1.0" encoding="UTF-8"?>
<svg width="635px" height="120px" viewBox="0 0 635 120" version="1.1" xmlns="http://www.w3.org/2000/svg" xmlns:xlink="http://www.w3.org/1999/xlink">
    <!-- Generator: Sketch 44.1 (41455) - http://www.bohemiancoding.com/sketch -->
    <title>Transparent w Font</title>
    <desc>Created with Sketch.</desc>
    <defs></defs>
    <g id="Small-Size" stroke="none" stroke-width="1" fill="none" fill-rule="evenodd">
        <g id="Transparent-w-Font" fill="#FFFFFF">
            <g id="Group-13" transform="translate(163.000000, 27.000000)">
                <path d="M407.68,8.5174 L407.68,29.7614 L442.894,29.7614 L442.894,36.7474 L407.68,36.7474 L407.68,58.0874 L447.104,58.0874 L447.104,64.9764 L400.503,64.9764 L400.503,1.6274 L447.104,1.6274 L447.104,8.5174 L407.68,8.5174 Z M389.641,1.6274 L389.641,64.9764 L381.316,64.9764 L342.178,11.4834 L342.178,64.9764 L335.001,64.9764 L335.001,1.6274 L343.326,1.6274 L382.464,54.9294 L382.464,1.6274 L389.641,1.6274 Z M292.382,58.7574 C299.909,58.7574 306.002,56.3014 310.659,51.3884 C315.124,46.6674 317.357,40.6394 317.357,33.3024 C317.357,25.9654 315.124,19.9364 310.659,15.2164 C306.002,10.3034 299.909,7.8474 292.382,7.8474 C284.855,7.8474 278.762,10.3034 274.106,15.2164 C269.64,19.9364 267.407,25.9654 267.407,33.3024 C267.407,40.6394 269.64,46.6674 274.106,51.3884 C278.762,56.3014 284.855,58.7574 292.382,58.7574 L292.382,58.7574 Z M292.382,0.8614 C301.824,0.8614 309.575,4.0194 315.635,10.3354 C321.568,16.4604 324.534,24.1154 324.534,33.3024 C324.534,42.4884 321.568,50.1444 315.635,56.2684 C309.575,62.5844 301.824,65.7424 292.382,65.7424 C282.941,65.7424 275.19,62.5844 269.129,56.2684 C263.197,50.1444 260.23,42.4884 260.23,33.3024 C260.23,24.1154 263.197,16.4604 269.129,10.3354 C275.19,4.0194 282.941,0.8614 292.382,0.8614 L292.382,0.8614 Z M258.248,8.5174 L236.145,8.5174 L236.145,64.9764 L228.968,64.9764 L228.968,8.5174 L206.864,8.5174 L206.864,1.6274 L258.248,1.6274 L258.248,8.5174 Z M188.59,64.9764 L195.767,64.9764 L195.767,1.6264 L188.59,1.6264 L188.59,64.9764 Z" id="Fill-5"></path>
                <path d="M135.8074,32.8914 L135.8074,8.1404 L153.3134,8.1404 C162.9924,8.1404 167.9004,12.3044 167.9004,20.5164 C167.9004,28.7274 162.9924,32.8914 153.3134,32.8914 L135.8074,32.8914 Z M160.3454,38.7084 L161.0274,38.5274 C165.4554,37.3524 168.9854,35.1784 171.5194,32.0614 C174.0464,28.9474 175.3284,25.0624 175.3284,20.5164 C175.3284,14.7334 173.3234,10.0904 169.3724,6.7184 C165.3964,3.3334 160.0274,1.6174 153.4114,1.6174 L128.7824,1.6174 L128.7824,64.9664 L135.8074,64.9664 L135.8074,39.4154 L152.4784,39.4154 L170.5784,64.9664 L178.9144,64.9664 L160.3454,38.7084 Z" id="Fill-7"></path>
                <polygon id="Fill-9" points="78.9236 8.5174 78.9236 8.5174 78.9236 29.7614 114.1376 29.7614 114.1376 36.7474 78.9236 36.7474 78.9236 58.0874 118.3476 58.0874 118.3476 64.9764 71.7466 64.9764 71.7466 1.6274 118.3476 1.6274 118.3476 8.5174"></polygon>
                <polygon id="Fill-11" points="62.5716 1.6272 62.5716 1.6272 35.4546 64.9772 27.2246 64.9772 0.1086 1.6272 7.9546 1.6272 31.3396 56.8432 54.7246 1.6272"></polygon>
            </g>
            <g id="Group-2">
                <g id="Group" transform="translate(42.000000, 0.000000)">
                    <polygon id="Fill-2" opacity="0.36" points="34.5644 0.0003 52.7794 31.2713 71.0444 0.0003"></polygon>
                    <polygon id="Fill-3" opacity="0.9" points="71.0436 0.0003 0.9526 120.0003 47.9366 120.0003 90.8896 46.1493"></polygon>
                </g>
                <polygon id="Fill-12" opacity="0.36" points="19.853244 0 0 46.1668073 42.9686773 120.045 66.4820639 79.8311745"></polygon>
            </g>
            <path d="M622.67013,87.2716796 L623.503807,87.2716796 C624.476098,87.2716796 625.263902,86.9475828 625.263902,86.1602768 C625.263902,85.4657123 624.754322,85.0020045 623.642919,85.0020045 C623.179212,85.0020045 622.855115,85.0488739 622.67013,85.0952447 L622.67013,87.2716796 Z M622.62376,91.5333038 L620.863664,91.5333038 L620.863664,83.9369724 C621.558727,83.8442309 622.531018,83.7051185 623.781533,83.7051185 C625.217531,83.7051185 625.866224,83.9369724 626.375804,84.3074401 C626.839013,84.6315369 627.163608,85.1874876 627.163608,85.9289215 C627.163608,86.8548412 626.468545,87.4571627 625.588498,87.7353874 L625.588498,87.8276304 C626.329433,88.0594843 626.699901,88.6618058 626.931754,89.6804671 C627.163608,90.8382407 627.348593,91.2555777 627.487207,91.5333038 L625.63437,91.5333038 C625.402516,91.2555777 625.263902,90.6068854 625.032048,89.6804671 C624.893435,88.893161 624.430225,88.5226934 623.457436,88.5226934 L622.62376,88.5226934 L622.62376,91.5333038 Z M617.945297,87.5957765 C617.945297,90.9778516 620.493197,93.6638665 623.874773,93.6638665 C627.163608,93.7102373 629.66414,90.9778516 629.66414,87.6426459 C629.66414,84.2610693 627.163608,81.528185 623.781533,81.528185 C620.493197,81.528185 617.945297,84.2610693 617.945297,87.5957765 L617.945297,87.5957765 Z M631.609718,87.5957765 C631.609718,91.8574006 628.18227,95.2389772 623.827904,95.2389772 C619.474037,95.2389772 615.999719,91.8574006 615.999719,87.5957765 C615.999719,83.3346509 619.474037,79.9999438 623.874773,79.9999438 C628.18227,79.9999438 631.609718,83.3346509 631.609718,87.5957765 L631.609718,87.5957765 Z" id="Fill-1"></path>
        </g>
    </g>
</svg>