<?xml version="1.0" encoding="UTF-8"?>
<svg width="162px" height="60px" viewBox="0 0 162 60" version="1.1" xmlns="http://www.w3.org/2000/svg" xmlns:xlink="http://www.w3.org/1999/xlink">
    <!-- Generator: Sketch 51 (57462) - http://www.bohemiancoding.com/sketch -->
    <title>no-search-profiles</title>
    <desc>Created with Sketch.</desc>
    <defs></defs>
    <g id="Discovery" stroke="none" stroke-width="1" fill="none" fill-rule="evenodd">
        <g id="No-Search-Profiles" transform="translate(-151.000000, -130.000000)">
            <g id="no-search-profiles" transform="translate(151.000000, 130.000000)">
                <g id="Group" transform="translate(9.000000, 11.000000)">
                    <path d="M1,0 L1,38" id="Line-2" stroke="#0686D8" stroke-width="2" stroke-linecap="round" stroke-linejoin="round"></path>
                    <path d="M140.502713,33.4614256 L131.298222,24.1506047 C133.093557,21.8220395 134.20204,18.9328302 134.20204,15.7581395 C134.20204,8.17052558 128.101983,2 120.60102,2 C113.100058,2 107,8.17052558 107,15.7581395 C107,23.3457535 113.100058,29.5162791 120.60102,29.5162791 C123.736055,29.5162791 126.592269,28.3949907 128.894242,26.5823558 L138.098732,35.8931767 C138.431957,36.2268116 138.86719,36.3953488 139.302423,36.3953488 C139.737655,36.3953488 140.172888,36.2268116 140.502713,35.8931767 C141.165762,35.2224674 141.165762,34.1321349 140.502713,33.4614256 Z M110.400255,15.7581395 C110.400255,10.0691488 114.976998,5.43953488 120.60102,5.43953488 C126.225042,5.43953488 130.801785,10.0691488 130.801785,15.7581395 C130.801785,21.4471302 126.225042,26.0767442 120.60102,26.0767442 C114.976998,26.0767442 110.400255,21.4471302 110.400255,15.7581395 Z" id="Shape" fill="#FFFFFF"></path>
                </g>
                <path d="M105,2 L160,2 L160,58 L105,58 L105,2 Z M149.502713,44.4614256 L140.298222,35.1506047 C142.093557,32.8220395 143.20204,29.9328302 143.20204,26.7581395 C143.20204,19.1705256 137.101983,13 129.60102,13 C122.100058,13 116,19.1705256 116,26.7581395 C116,34.3457535 122.100058,40.5162791 129.60102,40.5162791 C132.736055,40.5162791 135.592269,39.3949907 137.894242,37.5823558 L147.098732,46.8931767 C147.431957,47.2268116 147.86719,47.3953488 148.302423,47.3953488 C148.737655,47.3953488 149.172888,47.2268116 149.502713,46.8931767 C150.165762,46.2224674 150.165762,45.1321349 149.502713,44.4614256 Z M119.400255,26.7581395 C119.400255,21.0691488 123.976998,16.4395349 129.60102,16.4395349 C135.225042,16.4395349 139.801785,21.0691488 139.801785,26.7581395 C139.801785,32.4471302 135.225042,37.0767442 129.60102,37.0767442 C123.976998,37.0767442 119.400255,32.4471302 119.400255,26.7581395 Z" id="Combined-Shape" fill="#9ECFEF"></path>
                <g id="Group-2" fill="#0686D8" fill-rule="nonzero">
                    <rect id="Rectangle-2" x="105" y="0" width="2" height="60"></rect>
                    <path d="M1,0 L161,0 C161.552285,0 162,0.44771525 162,1 L162,59 C162,59.5522847 161.552285,60 161,60 L1,60 C0.44771525,60 0,59.5522847 0,59 L0,1 C0,0.44771525 0.44771525,0 1,0 Z M2,2 L2,58 L160,58 L160,2 L2,2 Z" id="Rectangle"></path>
                </g>
            </g>
        </g>
    </g>
</svg>